<svg width="1280" height="640" viewBox="0 0 1280 640" fill="none" xmlns="http://www.w3.org/2000/svg">
<g clip-path="url(#clip0)">
<path d="M305.589 403.682H321.516V360.269H322.475C325.352 365.489 331.211 374.598 346.126 374.598C365.941 374.598 380.323 358.724 380.323 332.251C380.323 305.724 365.728 290.116 345.966 290.116C330.785 290.116 325.298 299.385 322.475 304.445H321.143V291.182H305.589V403.682ZM321.197 332.091C321.197 314.992 328.654 303.646 342.557 303.646C356.992 303.646 364.237 315.844 364.237 332.091C364.237 348.497 356.779 361.015 342.557 361.015C328.867 361.015 321.197 349.296 321.197 332.091ZM421.978 374.811C435.508 374.811 443.125 367.94 446.161 361.814H446.8V373H462.354V318.668C462.354 294.857 443.604 290.116 430.607 290.116C415.799 290.116 402.163 296.082 396.836 310.997L411.804 314.406C414.148 308.6 420.114 303.007 430.82 303.007C441.101 303.007 446.374 308.387 446.374 317.656V318.028C446.374 323.835 440.408 323.728 425.707 325.433C410.206 327.244 394.332 331.292 394.332 349.882C394.332 365.969 406.424 374.811 421.978 374.811ZM425.44 362.027C416.438 362.027 409.94 357.979 409.94 350.095C409.94 341.572 417.504 338.536 426.719 337.311C431.886 336.619 444.137 335.234 446.428 332.943V343.49C446.428 353.185 438.704 362.027 425.44 362.027ZM521.76 291.182H504.981V271.58H489.055V291.182H477.069V303.966H489.055V352.279C489.001 367.141 500.347 374.332 512.918 374.065C517.979 374.012 521.388 373.053 523.252 372.361L520.376 359.204C519.31 359.417 517.339 359.896 514.782 359.896C509.616 359.896 504.981 358.192 504.981 348.977V303.966H521.76V291.182ZM539.379 373H555.305V323.036C555.305 312.329 563.562 304.605 574.854 304.605C578.157 304.605 581.886 305.191 583.164 305.564V290.33C581.566 290.116 578.423 289.957 576.399 289.957C566.811 289.957 558.608 295.39 555.625 304.179H554.773V291.182H539.379V373ZM628.481 374.651C651.546 374.651 666.62 357.766 666.62 332.464C666.62 307.002 651.546 290.116 628.481 290.116C605.416 290.116 590.342 307.002 590.342 332.464C590.342 357.766 605.416 374.651 628.481 374.651ZM628.534 361.281C613.46 361.281 606.428 348.124 606.428 332.411C606.428 316.75 613.46 303.433 628.534 303.433C643.502 303.433 650.534 316.75 650.534 332.411C650.534 348.124 643.502 361.281 628.534 361.281ZM700.325 324.42C700.325 311.37 708.315 303.913 719.395 303.913C730.208 303.913 736.76 310.997 736.76 322.876V373H752.686V320.958C752.686 300.717 741.554 290.116 724.828 290.116C712.523 290.116 704.48 295.816 700.698 304.499H699.686V291.182H684.398V373H700.325V324.42ZM825.875 339.069C825.929 352.972 815.595 359.577 806.646 359.577C796.792 359.577 789.973 352.439 789.973 341.306V291.182H774.047V343.224C774.047 363.518 785.179 374.065 800.893 374.065C813.198 374.065 821.561 367.567 825.343 358.831H826.195V373H841.855V291.182H825.875V339.069ZM863.256 373H879.182V322.556C879.182 311.53 886.906 303.859 895.961 303.859C904.804 303.859 910.93 309.719 910.93 318.614V373H926.803V320.852C926.803 310.997 932.822 303.859 943.209 303.859C951.626 303.859 958.55 308.547 958.55 319.626V373H974.477V318.135C974.477 299.438 964.037 290.116 949.229 290.116C937.456 290.116 928.614 295.763 924.672 304.499H923.82C920.251 295.55 912.741 290.116 901.821 290.116C891.008 290.116 882.964 295.496 879.555 304.499H878.543V291.182H863.256V373Z" fill="black"/>
<path d="M583.032 399.909H577.674V393.898H573.819V399.909H570.029V403.176H573.819V418.858C573.819 423.236 577.347 425.327 580.615 425.327C582.052 425.327 582.967 425.065 583.49 424.869L582.705 421.406C582.379 421.472 581.856 421.602 581.007 421.602C579.308 421.602 577.674 421.08 577.674 417.812V403.176H583.032V399.909ZM593.225 409.906C593.225 405.528 596.019 403.045 599.825 403.045C603.451 403.045 605.64 405.332 605.64 409.318V425H609.495V409.057C609.495 402.604 606.065 399.582 600.936 399.582C596.982 399.582 594.728 401.232 593.552 403.83H593.225V391.545H589.37V425H593.225V409.906ZM627.068 425.523C632.164 425.523 635.889 422.974 637.065 419.185L633.341 418.139C632.36 420.753 630.09 422.06 627.068 422.06C622.543 422.06 619.423 419.136 619.243 413.761H637.457V412.128C637.457 402.784 631.903 399.582 626.676 399.582C619.88 399.582 615.372 404.94 615.372 412.651C615.372 420.361 619.815 425.523 627.068 425.523ZM619.243 410.429C619.505 406.525 622.265 403.045 626.676 403.045C630.858 403.045 633.537 406.182 633.537 410.429H619.243ZM666.779 425.523C671.875 425.523 675.6 422.974 676.776 419.185L673.051 418.139C672.071 420.753 669.801 422.06 666.779 422.06C662.254 422.06 659.134 419.136 658.954 413.761H677.168V412.128C677.168 402.784 671.614 399.582 666.387 399.582C659.591 399.582 655.083 404.94 655.083 412.651C655.083 420.361 659.526 425.523 666.779 425.523ZM658.954 410.429C659.216 406.525 661.976 403.045 666.387 403.045C670.569 403.045 673.248 406.182 673.248 410.429H658.954ZM694.206 399.909H688.586V397.361C688.586 394.878 689.632 393.571 692.18 393.571C693.291 393.571 693.944 393.832 694.336 393.963L695.447 390.631C694.859 390.369 693.683 389.977 691.788 389.977C688.194 389.977 684.731 392.134 684.731 396.446V399.909H680.68V403.176H684.731V425H688.586V403.176H694.206V399.909ZM710.782 399.909H705.162V397.361C705.162 394.878 706.208 393.571 708.756 393.571C709.867 393.571 710.52 393.832 710.912 393.963L712.023 390.631C711.435 390.369 710.259 389.977 708.364 389.977C704.77 389.977 701.307 392.134 701.307 396.446V399.909H697.256V403.176H701.307V425H705.162V403.176H710.782V399.909ZM725.671 425.523C730.768 425.523 734.492 422.974 735.669 419.185L731.944 418.139C730.964 420.753 728.693 422.06 725.671 422.06C721.146 422.06 718.026 419.136 717.847 413.761H736.061V412.128C736.061 402.784 730.507 399.582 725.279 399.582C718.484 399.582 713.975 404.94 713.975 412.651C713.975 420.361 718.419 425.523 725.671 425.523ZM717.847 410.429C718.108 406.525 720.869 403.045 725.279 403.045C729.461 403.045 732.14 406.182 732.14 410.429H717.847ZM752.118 425.523C757.672 425.523 761.331 422.125 761.985 417.682H758.129C757.411 420.426 755.124 422.06 752.118 422.06C747.544 422.06 744.604 418.27 744.604 412.455C744.604 406.77 747.61 403.045 752.118 403.045C755.516 403.045 757.541 405.136 758.129 407.423H761.985C761.331 402.719 757.345 399.582 752.053 399.582C745.257 399.582 740.749 404.94 740.749 412.585C740.749 420.099 745.061 425.523 752.118 425.523ZM778.532 399.909H773.174V393.898H769.319V399.909H765.529V403.176H769.319V418.858C769.319 423.236 772.847 425.327 776.115 425.327C777.552 425.327 778.467 425.065 778.99 424.869L778.205 421.406C777.879 421.472 777.356 421.602 776.507 421.602C774.808 421.602 773.174 421.08 773.174 417.812V403.176H778.532V399.909ZM794.255 425.523C801.05 425.523 805.624 420.361 805.624 412.585C805.624 404.744 801.05 399.582 794.255 399.582C787.459 399.582 782.885 404.744 782.885 412.585C782.885 420.361 787.459 425.523 794.255 425.523ZM794.255 422.06C789.093 422.06 786.741 417.616 786.741 412.585C786.741 407.554 789.093 403.045 794.255 403.045C799.417 403.045 801.769 407.554 801.769 412.585C801.769 417.616 799.417 422.06 794.255 422.06ZM811.509 425H815.364V409.122C815.364 405.724 818.043 403.241 821.702 403.241C822.731 403.241 823.793 403.438 824.054 403.503V399.582C823.613 399.55 822.6 399.517 822.029 399.517C819.023 399.517 816.409 401.216 815.495 403.699H815.233V399.909H811.509V425ZM845.417 391.545H841.562V425H845.417V391.545ZM852.478 425H856.333V399.909H852.478V425ZM854.438 395.727C855.941 395.727 857.182 394.551 857.182 393.114C857.182 391.676 855.941 390.5 854.438 390.5C852.935 390.5 851.694 391.676 851.694 393.114C851.694 394.551 852.935 395.727 854.438 395.727ZM863.916 425H867.641V421.145H868.098C868.948 422.517 870.581 425.523 875.416 425.523C881.689 425.523 886.067 420.491 886.067 412.52C886.067 404.614 881.689 399.582 875.351 399.582C870.45 399.582 868.948 402.588 868.098 403.895H867.771V391.545H863.916V425ZM867.706 412.455C867.706 406.835 870.189 403.045 874.894 403.045C879.794 403.045 882.212 407.162 882.212 412.455C882.212 417.812 879.729 422.06 874.894 422.06C870.254 422.06 867.706 418.139 867.706 412.455ZM891.964 425H895.819V409.122C895.819 405.724 898.498 403.241 902.157 403.241C903.186 403.241 904.248 403.438 904.509 403.503V399.582C904.068 399.55 903.056 399.517 902.484 399.517C899.478 399.517 896.865 401.216 895.95 403.699H895.688V399.909H891.964V425ZM916.463 425.588C920.841 425.588 923.127 423.236 923.912 421.602H924.108V425H927.963V408.469C927.963 400.497 921.886 399.582 918.684 399.582C914.895 399.582 910.582 400.889 908.622 405.463L912.281 406.77C913.13 404.94 915.14 402.98 918.815 402.98C922.36 402.98 924.108 404.859 924.108 408.077V408.207C924.108 410.07 922.213 409.906 917.639 410.494C912.983 411.099 907.903 412.128 907.903 417.878C907.903 422.778 911.693 425.588 916.463 425.588ZM917.051 422.125C913.98 422.125 911.758 420.753 911.758 418.074C911.758 415.134 914.437 414.219 917.443 413.827C919.076 413.631 923.454 413.173 924.108 412.389V415.918C924.108 419.054 921.625 422.125 917.051 422.125ZM934.999 425H938.854V409.122C938.854 405.724 941.533 403.241 945.192 403.241C946.221 403.241 947.283 403.438 947.545 403.503V399.582C947.104 399.55 946.091 399.517 945.519 399.517C942.513 399.517 939.9 401.216 938.985 403.699H938.724V399.909H934.999V425ZM955.361 434.409C958.84 434.409 961.291 432.563 962.744 428.659L973.428 399.974L969.213 399.909L962.287 419.903H962.026L955.1 399.909H950.918L960.196 425.131L959.477 427.091C958.073 430.913 956.341 431.273 953.531 430.554L952.551 433.952C952.943 434.148 954.054 434.409 955.361 434.409Z" fill="black"/>
<g clip-path="url(#clip1)">
<path d="M984.5 304.8C982.2 289.7 981.2 287.8 973.7 284C969.1 281.7 966.3 281 961.8 281C952.8 281 955 279.4 964.9 278.7C975.3 278 980.6 276.1 982 272.6C982.5 271.2 983.5 265.3 984.2 259.5C985 252.3 985.8 249 986.7 249C987.5 249 988 250.4 988 252.8C988.1 260.8 990.8 272.3 993.2 274.7C995.8 277.2 1003.6 279 1012.3 279C1018.8 279 1017.5 280.6 1010.3 281.4C1002.9 282.2 994.4 286.3 992.6 289.9C991.8 291.4 990.3 297.9 989.3 304.3C988.3 310.7 987.2 316 986.9 316C986.5 316 985.5 310.9 984.5 304.8Z" fill="#FC9538"/>
<path d="M1033.5 307.3C1030.4 285.2 1025.7 260.1 1023.9 256.4C1018.6 245.4 1002.3 237.5 982.3 236.3C976.6 236 972 235.4 972 234.9C972 234.5 977.3 233.9 983.8 233.6C1010.2 232.3 1020.3 229.1 1024.6 220.9C1026 218 1028.9 201.6 1031.6 181.2C1032.5 173.9 1033.6 167.7 1034 167.5C1034.4 167.2 1035.5 173 1036.4 180.3C1039.3 203.1 1041.9 216.8 1044 221C1046.2 225.2 1051.8 229.1 1058.5 230.9C1060.7 231.5 1069.8 232.5 1078.8 233.2C1087.7 233.9 1095 234.7 1095 235.1C1095 235.4 1091 236.3 1086.1 236.9C1064.5 239.6 1049.7 247.2 1045.2 257.8C1043.2 262.5 1036 302 1036 308.6C1036 313.7 1034.2 312.7 1033.5 307.3Z" fill="#FC9538"/>
<path d="M962.6 232.3C960.7 218 958.7 209.8 956.4 207.1C953.4 203.4 946.1 200 941.4 200C935.1 200 938 197.6 945.1 196.9C953.2 196.2 957.4 194 958.9 189.8C959.5 188.1 960.6 181.5 961.2 175.3C962 168.6 962.8 164.1 963.5 164.3C964 164.5 965 169.1 965.6 174.6C967.9 193.8 968.9 195.3 981.5 197.1C988.8 198.2 991.7 200 986.3 200C982.5 200 973.1 204.9 970.8 208.1C969.5 209.8 968.2 215.1 966.7 223.8C965.5 231.1 964.3 237 963.9 237C963.6 237 963 234.9 962.6 232.3Z" fill="#FC9538"/>
<path d="M986.3 310.2C986 304 983.5 291.8 981.9 288.8C981.4 287.8 980.2 287 979.4 287C978.6 287 978.1 286.6 978.4 286.1C979 285.3 977.5 284.3 975.6 284.2C975.1 284.2 974.4 283.8 974.1 283.3C972.2 280.8 968.5 279.9 962.4 280.5C957.9 281 956 280.9 956 280.1C956 279.4 958.2 279 961.9 279C965.2 279 968.6 278.7 969.6 278.3C970.8 277.9 971.1 278 970.6 278.8C970.2 279.5 970.4 280 970.9 280C971.5 280 972 279.6 972 279.1C972 278.3 976.9 276.7 978.5 276.9C980 277.1 983.1 272.5 984.1 268.4C984.8 265.9 985.9 263.6 986.7 263.3C987.8 262.9 987.9 261.4 987.4 256.6C987 253.3 986.2 250.2 985.6 249.8C984.9 249.3 985.2 249 986.3 249C987.6 249 988 249.9 988 252.8C988.1 260.2 990.8 272.2 992.9 274.4C994.1 275.7 994.8 276.8 994.6 277.1C994.4 277.3 995.1 277.6 996.3 277.6C1007.7 278.3 1016.8 279.5 1016.3 280.2C1016 280.8 1014.5 281 1013 280.7C1011.5 280.4 1009.7 280.6 1009 281.3C1008 282.2 1007.9 282.2 1008.4 281.3C1008.9 280.3 1007.9 280 1004.3 280.1C1000.3 280.2 1000 280.3 1002.5 280.9L1005.5 281.5L1001.4 282.8C997 284.1 990.6 289.5 991.5 291C991.9 291.6 991.6 292 991 292C990.3 292 990.1 292.8 990.5 293.9C990.8 295 990.6 296.1 990 296.5C989.3 296.9 989.1 298.3 989.4 299.9C989.9 301.9 989.8 302.2 989 301C988.1 299.8 988 300.5 988.3 303.8C988.6 306.1 988.5 308 988.1 308C987.6 308 987.5 309.8 987.7 312C987.9 314.2 987.7 316 987.3 316C986.9 316 986.4 313.4 986.3 310.2Z" fill="#FCB43C"/>
<path d="M1033.5 307.9C1033.1 305.7 1033.1 303.6 1033.4 303.3C1033.7 302.9 1034 303.6 1034 304.8C1034 305.9 1034.5 307.2 1035 307.5C1036.3 308.3 1036.3 312 1035.1 312C1034.6 312 1033.9 310.2 1033.5 307.9Z" fill="#FCB43C"/>
<path d="M1032.6 300.4C1031.7 298 1032 296.2 1033 298.5L1033.9 300.5V298.5C1034 295.2 1032.2 288.8 1031 288C1030.3 287.6 1030.2 286.2 1030.6 284.7C1030.9 283.1 1030.8 282 1030.2 282C1029.6 282 1029.4 280.2 1029.6 277.9C1029.9 275.2 1029.7 274.1 1028.9 274.5C1028.2 275 1028.1 273.8 1028.5 270.8C1028.9 267.5 1028.8 266.9 1028 268C1027.1 269.2 1026.9 268.8 1027.2 266.3C1027.5 264.5 1027.3 263.3 1026.8 263.6C1026.3 263.9 1026.2 262.9 1026.6 261.4C1027.1 259.6 1026.9 258.9 1026.3 259.3C1025.3 259.9 1023.4 255.5 1023.9 253.7C1024 253.2 1023.6 253.1 1023.1 253.4C1022.3 253.9 1020.8 251.8 1020.6 249.8C1020.5 249.5 1020.1 248.8 1019.6 248.3C1019.1 247.8 1019 248.1 1019.5 249C1019.9 249.8 1018.9 249 1017.1 247.2C1015.3 245.3 1013.5 244.2 1012.8 244.6C1012.1 245.1 1012 244.9 1012.5 244C1013.1 243 1012.9 242.8 1011.6 243.3C1010.5 243.8 1010.1 243.6 1010.6 242.8C1011.1 242 1010.8 241.9 1009.6 242.3C1008.7 242.7 1008.1 242.6 1008.4 242.1C1009.2 240.9 1001.4 237.6 999.5 238.4C998.4 238.8 998.1 238.6 998.6 237.8C999.1 237.1 998.6 236.9 997.2 237.2C995.8 237.6 995.3 237.4 995.6 236.5C996 235.6 994.8 235.1 991.7 234.9C988.2 234.6 987.4 234.8 987.8 235.9C988.2 236.9 987.9 237.1 987 236.5C986.2 236 982.5 235.7 978.8 235.8C974.4 236 972 235.7 972 235C972 234.4 973.7 233.9 975.8 233.9C984.1 233.9 1005.6 232.6 1007 232C1007.3 231.9 1008.6 231.9 1010 232C1011.4 232.1 1012.2 231.9 1011.8 231.5C1011.4 231.1 1013.4 229.6 1016.3 228.1C1022.6 225 1025.7 220.5 1026.6 213.7C1027.1 210 1027.5 209.1 1028 210.5C1029 213.2 1030.4 203 1029.5 199.8C1029 197.9 1029.1 197.8 1030 199C1030.9 200.2 1031.1 199.5 1030.7 195.8C1030.5 193.2 1030.6 191.3 1031 191.5C1031.4 191.8 1031.7 190.1 1031.6 187.7C1031.4 185.4 1031.8 183.2 1032.4 182.8C1033.1 182.3 1033.1 182 1032.2 182C1031.5 182 1031.2 181.5 1031.5 181C1031.8 180.4 1032.3 177.4 1032.6 174.3C1032.9 171.1 1033.5 168.1 1033.9 167.7C1034.9 166.7 1036.3 177 1036.3 185.3C1036.4 187.9 1036.7 190 1037 190C1037.4 190 1037.5 191.8 1037.3 194.1C1037.1 196.7 1037.4 197.9 1038 197.5C1038.7 197.1 1038.8 198.2 1038.4 200.8C1038 203.1 1038.2 205 1038.8 205.4C1039.4 205.7 1039.6 206.9 1039.3 208C1039 209.1 1039.2 210 1039.7 210C1040.3 210 1040.5 211.1 1040.2 212.5C1040 213.9 1040.2 215 1040.9 215C1041.4 215 1041.7 215.7 1041.4 216.5C1041 217.3 1041.2 218 1041.8 218C1042.3 218 1043.3 219.4 1044 221.1C1044.7 222.8 1046.8 225.2 1048.6 226.4C1050.5 227.7 1051.7 229 1051.3 229.4C1050.9 229.8 1051.4 229.8 1052.4 229.4C1053.7 228.9 1054.1 229 1053.7 229.7C1052.8 231.2 1056.5 232.5 1069.3 235.4C1072.9 236.2 1072.7 237.3 1068.5 239C1066.6 239.7 1065.4 240.8 1065.7 241.3C1066 241.9 1065.8 242 1065.2 241.6C1063.3 240.5 1052.8 246.7 1049.5 250.9C1047.9 253 1046.2 254.6 1045.8 254.3C1045.4 254.1 1045.3 254.7 1045.7 255.6C1046.1 256.7 1046 257.1 1045.2 256.6C1043.9 255.8 1041.7 263 1042.6 265.4C1042.9 266.3 1042.7 267 1042 267C1041.4 267 1041 267.8 1041.1 268.8C1041.3 269.7 1041.1 271.4 1040.7 272.5C1039.7 275.7 1037.7 287.9 1037.5 292.5C1037.4 294.2 1036.8 295.4 1036.2 295.3C1035.5 295.1 1035 296.2 1035 297.9C1035 301.3 1033.5 302.8 1032.6 300.4ZM1034.7 183.8C1034.5 182 1034.3 183.4 1034.3 187C1034.3 190.6 1034.5 192 1034.7 190.3C1034.9 188.5 1034.9 185.5 1034.7 183.8ZM1034.7 174.8C1034.5 173.5 1034.3 174.3 1034.3 176.5C1034.2 178.7 1034.4 179.7 1034.7 178.8C1034.9 177.8 1034.9 176 1034.7 174.8Z" fill="#FCB43C"/>
<path d="M964.6 229.3C965.4 225.1 965.7 221.4 965.5 221.1C965.2 220.9 965 221.4 965 222.2C965 224.1 962 225.5 961.9 223.7C961.9 223 961.7 221.6 961.4 220.5C961.2 219.4 960.9 217.5 960.8 216.3C960.7 215 960.2 214 959.7 214C959.3 214 959.2 213.5 959.5 213C960.2 211.8 958.4 208.6 954.5 204.5C952.1 201.8 950.6 201.3 942.3 200.3C939.9 200 938 199.5 938 199.1C938 197.5 939.3 197.2 942 198.2C946.1 199.6 957.2 194.4 959.5 190C960.4 188.3 960.8 186.5 960.5 186.1C960.2 185.6 960.4 184 961 182.6C961.5 181.2 962 176.4 962.1 172C962.3 160.8 964.2 162.1 965.6 174.6C967.9 193.8 968.9 195.3 981.5 197.1C988.6 198.2 991.8 200 986.6 200C985.3 200 982.6 200.7 980.6 201.5C978.6 202.4 976.4 202.8 975.8 202.4C975.2 202 975 202.1 975.3 202.7C975.7 203.3 974.8 204.5 973.4 205.5C969.9 207.8 968.6 211.5 966.4 225.3C965.4 231.7 964.3 237 964 237C963.6 237 963.9 233.5 964.6 229.3Z" fill="#FCB43C"/>
<path d="M1088.2 235.9C1088.8 234.2 1095 233.4 1095 235C1095 235.6 1094 236 1092.8 235.9C1091.5 235.7 1089.9 235.9 1089.1 236.4C1088.2 237 1087.9 236.9 1088.2 235.9Z" fill="#FCB43C"/>
<path d="M986.2 302.5C986.6 298.2 983.8 290.3 980.6 286.7C978.8 284.7 976.8 283 976.2 283C974.6 283 974 281.6 975.1 280C975.9 278.7 976.1 278.7 976.9 279.9C978.3 282.1 982.8 278.7 985 273.7C986.7 269.6 986.8 269.5 987.5 272.1C988.4 275.8 993.2 280.1 997.2 280.9L1000.5 281.6L996.4 284.2C992.1 287 988.1 293.5 987.9 298.1C987.9 299.4 987.4 301.4 986.9 302.5L986 304.5L986.2 302.5Z" fill="#FDE049"/>
<path d="M1034.2 289.9C1033.5 288.8 1032.3 282.6 1031.5 276C1029.3 256.7 1023.7 247.6 1010.2 241C1005.4 238.7 1003.6 237 1006 237C1006.6 237 1007 236.3 1007 235.5C1007 234.7 1008.2 233.8 1009.8 233.4C1022 230.8 1026.8 225.2 1029.5 210.4C1030.4 205.5 1031.4 200.4 1031.8 199L1032.4 196.5L1032.7 199C1032.9 200.4 1034 202.6 1035.1 204C1036.8 206.1 1037 206.2 1036.6 204.5C1035.6 200.7 1035.1 193.7 1035.9 194.6C1036.3 195.1 1037.2 199.6 1037.9 204.5C1039.5 216.7 1041.3 221.7 1046.1 227.2C1049.2 230.8 1051.4 232.3 1055.6 233.6C1059.7 235 1060.9 235.8 1060.5 237C1060.1 238.3 1060.7 238.5 1063.7 238.3C1067.2 238 1066.9 238.2 1061.4 240.3C1054.4 243 1050.2 245.7 1044.2 251.4C1038.6 256.8 1037 262.1 1036.4 278.5C1036.1 285.6 1035.8 291.5 1035.7 291.7C1035.5 291.8 1034.9 291 1034.2 289.9Z" fill="#FDE049"/>
<path d="M956 280C956 279.5 957.6 279 959.6 279C961.7 279 962.9 279.4 962.5 280C962.2 280.6 960.6 281 958.9 281C957.3 281 956 280.6 956 280Z" fill="#FDE049"/>
<path d="M1006.1 279.8C1002 279.3 997.9 278.4 997.1 277.9C995.8 277 995.8 277 997.4 277.4C998.4 277.8 1003.2 278.3 1008.1 278.7C1013 279 1016.7 279.7 1016.4 280.1C1016.1 280.6 1015.3 280.9 1014.7 280.9C1014 280.8 1010.1 280.3 1006.1 279.8Z" fill="#FDE049"/>
<path d="M989.8 275.3C989.2 274.5 989 273.7 989.4 273.3C989.7 273 990 273.3 990 274.1C990 275.2 990.2 275.2 990.8 274.2C991.5 273.2 992 273.4 993.3 274.8C994.8 276.5 994.8 276.6 992.9 276.6C991.8 276.6 990.4 276 989.8 275.3Z" fill="#FDE049"/>
<path d="M968 211.9C968 211 968.9 209.1 970.1 207.6C971.2 206.2 971.7 205 971.1 205C970.6 205 969.8 205.5 969.5 206C969.1 206.6 968.4 206.8 967.9 206.5C967.4 206.1 966.5 207 965.8 208.4C964.5 211.5 963.4 211.7 962.5 209.1C961.7 206.5 955.7 200 954.1 200C953.4 200 953.8 200.9 955.1 202.1L957.5 204.1L955 202.9C949.8 200.3 949.8 199.4 954.9 196.3C959 193.7 959.9 192.6 960.8 188.7C961.5 186.2 962.1 182.6 962.1 180.8L962.2 177.5L963 180.5C963.6 183 963.8 183.2 964.5 181.7C964.9 180.7 965 178 964.7 175.8C964.3 173 964.5 172.1 965.1 173.1C966.3 175 966.2 181.7 965 182.5C964.5 182.8 964 184.8 964 186.9C964 189.7 964.7 191.3 966.6 193.1L969.2 195.5L968.5 193.2C967.8 190.9 967.8 190.8 969.7 192.7C971.7 194.6 971.7 197.5 969.6 196.3C969 196 969.3 196.6 970.3 197.8C971.4 198.9 971.9 200.4 971.5 201C970.9 201.9 971.3 201.9 972.8 201.1C976.5 199.1 977.6 200 974.5 202.6C971.8 204.9 971.7 205 974 204C976.3 203 976.3 203.1 973.6 205.1C972.1 206.3 970.2 208.7 969.4 210.4C968.7 212.1 968.1 212.8 968 211.9Z" fill="#FDE049"/>
<path d="M938 199.1C938 198.5 938.5 197.8 939 197.5C939.6 197.2 940 197.3 940 197.9C940 198.4 940.8 199.1 941.8 199.3C942.8 199.6 942.4 199.8 940.8 199.9C939.2 199.9 938 199.6 938 199.1Z" fill="#FDE049"/>
<path d="M972 196.9C972 196.1 981.1 196.8 982 197.6C982.2 197.9 980.1 198 977.2 197.9C974.4 197.7 972 197.3 972 196.9Z" fill="#FDE049"/>
<path d="M965.4 188.8C965.7 187.5 966 185.6 966.1 184.5C966.1 183.1 966.4 183.4 967.1 185.5C968.1 188.9 967.6 191 965.9 191C965.2 191 965 190.1 965.4 188.8Z" fill="#FDE049"/>
<path d="M956 280C956 279.4 957.5 279 959.4 279.2C961.3 279.3 962.6 279.8 962.4 280.2C961.6 281.4 956 281.2 956 280Z" fill="#FFE298"/>
<path d="M1006.5 279.9C998.4 278.8 995.1 277.7 1002.4 278.5C1005.1 278.8 1009.5 279 1012.2 279C1015.2 279 1016.9 279.4 1016.5 280C1016.2 280.6 1015.3 280.9 1014.7 280.9C1014 280.8 1010.4 280.3 1006.5 279.9Z" fill="#FFE298"/>
<path d="M992.4 275.6C991.4 274.8 990.8 273.9 991.1 273.6C991.4 273.3 992.5 273.9 993.5 275C995.6 277.3 995.2 277.6 992.4 275.6Z" fill="#FFE298"/>
<path d="M986.8 251.5C986.5 250.1 986.7 249 987.1 249C987.6 249 988 250.1 988 251.5C988 252.9 987.8 254 987.6 254C987.4 254 987 252.9 986.8 251.5Z" fill="#FFE298"/>
<path d="M963.8 234.5C964 233.1 964.4 232 964.6 232C964.8 232 965 233.1 965 234.5C965 235.9 964.6 237 964.1 237C963.7 237 963.5 235.9 963.8 234.5Z" fill="#FFE298"/>
<path d="M972 235C972 234.4 973.9 234.1 976.4 234.2C978.8 234.4 980.6 234.8 980.3 235.3C979.6 236.4 972 236.1 972 235Z" fill="#FFE298"/>
<path d="M1025.2 225C1026.5 222.9 1027.6 221.3 1027.9 221.5C1028.6 222.3 1025.8 227.9 1024.4 228.4C1023.4 228.8 1023.7 227.7 1025.2 225Z" fill="#FFE298"/>
<path d="M1041.1 224.4C1038.2 220.7 1036.3 212.6 1037 207C1037.1 205.9 1037.4 206.1 1037.9 207.5C1038.4 208.6 1038.5 211 1038.2 212.9C1037.8 215.5 1038 216.1 1039 215.5C1039.8 215 1040.1 215.1 1039.6 215.8C1039.3 216.4 1039.4 217.1 1040 217.5C1040.5 217.8 1041 218.9 1041 219.9C1041 220.8 1041.5 222.1 1042.2 222.8C1043.3 223.9 1044.2 227 1043.5 227C1043.3 227 1042.2 225.8 1041.1 224.4Z" fill="#FFE298"/>
<path d="M966.2 222.5C966.2 220.9 966.6 218.2 967 216.5C968.1 212.3 968.1 216.4 967.1 221.5C966.4 224.9 966.2 225 966.2 222.5Z" fill="#FFE298"/>
<path d="M968 211.9C968 209.8 971.6 205.3 974.3 203.9C975.7 203.3 975.5 203.7 973.6 205.1C972.1 206.3 970.2 208.7 969.4 210.4C968.7 212.1 968.1 212.8 968 211.9Z" fill="#FFE298"/>
<path d="M1036.7 204.3C1036.3 204 1036.1 201.6 1036.1 199.1L1036.3 194.5L1037 199.5C1037.8 204.8 1037.7 205.4 1036.7 204.3Z" fill="#FFE298"/>
<path d="M938 199C938 197.8 938.8 197.8 941.5 199C943.3 199.8 943.2 199.9 940.8 199.9C939.2 200 938 199.6 938 199Z" fill="#FFE298"/>
<path d="M986 199C987.9 197.7 989 197.7 989 199C989 199.6 988 200 986.8 200C984.9 200 984.8 199.8 986 199Z" fill="#FFE298"/>
<path d="M953.5 197.9C955.2 197.2 956.9 196.1 957.3 195.4C957.7 194.6 958.8 194 959.6 194C962.5 194 957.5 198 953.9 198.5L950.5 199L953.5 197.9Z" fill="#FFE298"/>
<path d="M960 192.3C960 191.8 960.7 189.3 961.5 186.5L963 181.5L962.4 186C962.1 188.5 961.8 191.1 961.7 191.8C961.7 193.1 960 193.6 960 192.3Z" fill="#FFE298"/>
<path d="M966.6 188.5C966.3 187.6 966 185.9 966.1 184.7C966.2 183.1 966.5 183.5 967.1 185.9C968.1 189.3 967.7 191.4 966.6 188.5Z" fill="#FFE298"/>
<path d="M965.2 179C965.2 177.1 965.4 176.3 965.7 177.3C965.9 178.2 965.9 179.8 965.7 180.8C965.4 181.7 965.2 180.9 965.2 179Z" fill="#FFE298"/>
<path d="M963.4 167.6C962.8 165.6 962.7 164 963.2 164C964.4 164 965.2 166.4 964.8 169C964.6 170.7 964.3 170.4 963.4 167.6Z" fill="#FFE298"/>
</g>
</g>
<defs>
<clipPath id="clip0">
<rect width="1280" height="640" fill="white"/>
</clipPath>
<clipPath id="clip1">
<rect width="160" height="160" fill="white" transform="translate(935 158)"/>
</clipPath>
</defs>
</svg>
