<svg width="1041" height="445" viewBox="0 0 1041 445" fill="none"
     xmlns="http://www.w3.org/2000/svg">
  <rect width="1041" height="445" rx="44" fill="var(--ifm-paper-background, white)"/>
  <path
    d="M151.589 291.682H167.516V248.269H168.475C171.352 253.489 177.211 262.598 192.126 262.598C211.941 262.598 226.323 246.724 226.323 220.251C226.323 193.724 211.728 178.116 191.966 178.116C176.785 178.116 171.298 187.385 168.475 192.445H167.143V179.182H151.589V291.682ZM167.197 220.091C167.197 202.992 174.654 191.646 188.557 191.646C202.992 191.646 210.237 203.844 210.237 220.091C210.237 236.497 202.779 249.015 188.557 249.015C174.867 249.015 167.197 237.296 167.197 220.091ZM267.978 262.811C281.508 262.811 289.125 255.94 292.161 249.814H292.8V261H308.354V206.668C308.354 182.857 289.604 178.116 276.607 178.116C261.799 178.116 248.163 184.082 242.836 198.997L257.804 202.406C260.148 196.6 266.114 191.007 276.82 191.007C287.101 191.007 292.374 196.387 292.374 205.656V206.028C292.374 211.835 286.408 211.728 271.707 213.433C256.206 215.244 240.332 219.292 240.332 237.882C240.332 253.969 252.424 262.811 267.978 262.811ZM271.44 250.027C262.438 250.027 255.94 245.979 255.94 238.095C255.94 229.572 263.504 226.536 272.719 225.311C277.886 224.619 290.137 223.234 292.428 220.943V231.49C292.428 241.185 284.704 250.027 271.44 250.027ZM367.76 179.182H350.981V159.58H335.055V179.182H323.069V191.966H335.055V240.279C335.001 255.141 346.347 262.332 358.918 262.065C363.979 262.012 367.388 261.053 369.252 260.361L366.376 247.204C365.31 247.417 363.339 247.896 360.782 247.896C355.616 247.896 350.981 246.192 350.981 236.977V191.966H367.76V179.182ZM385.379 261H401.305V211.036C401.305 200.329 409.562 192.605 420.854 192.605C424.157 192.605 427.886 193.191 429.164 193.564V178.33C427.566 178.116 424.423 177.957 422.399 177.957C412.811 177.957 404.608 183.39 401.625 192.179H400.773V179.182H385.379V261ZM474.481 262.651C497.546 262.651 512.62 245.766 512.62 220.464C512.62 195.002 497.546 178.116 474.481 178.116C451.416 178.116 436.342 195.002 436.342 220.464C436.342 245.766 451.416 262.651 474.481 262.651ZM474.534 249.281C459.46 249.281 452.428 236.124 452.428 220.411C452.428 204.75 459.46 191.433 474.534 191.433C489.502 191.433 496.534 204.75 496.534 220.411C496.534 236.124 489.502 249.281 474.534 249.281ZM546.325 212.42C546.325 199.37 554.315 191.913 565.395 191.913C576.208 191.913 582.76 198.997 582.76 210.876V261H598.686V208.958C598.686 188.717 587.554 178.116 570.828 178.116C558.523 178.116 550.48 183.816 546.698 192.499H545.686V179.182H530.398V261H546.325V212.42ZM671.875 227.069C671.929 240.972 661.595 247.577 652.646 247.577C642.792 247.577 635.973 240.439 635.973 229.306V179.182H620.047V231.224C620.047 251.518 631.179 262.065 646.893 262.065C659.198 262.065 667.561 255.567 671.343 246.831H672.195V261H687.855V179.182H671.875V227.069ZM709.256 261H725.182V210.556C725.182 199.53 732.906 191.859 741.961 191.859C750.804 191.859 756.93 197.719 756.93 206.614V261H772.803V208.852C772.803 198.997 778.822 191.859 789.209 191.859C797.626 191.859 804.55 196.547 804.55 207.626V261H820.477V206.135C820.477 187.438 810.037 178.116 795.229 178.116C783.456 178.116 774.614 183.763 770.672 192.499H769.82C766.251 183.55 758.741 178.116 747.821 178.116C737.008 178.116 728.964 183.496 725.555 192.499H724.543V179.182H709.256V261Z"
    fill="var(--ifm-paper-foreground, black)"/>
  <path
    d="M429.032 287.909H423.674V281.898H419.819V287.909H416.029V291.176H419.819V306.858C419.819 311.236 423.347 313.327 426.615 313.327C428.052 313.327 428.967 313.065 429.49 312.869L428.705 309.406C428.379 309.472 427.856 309.602 427.007 309.602C425.308 309.602 423.674 309.08 423.674 305.812V291.176H429.032V287.909ZM439.225 297.906C439.225 293.528 442.019 291.045 445.825 291.045C449.451 291.045 451.64 293.332 451.64 297.318V313H455.495V297.057C455.495 290.604 452.065 287.582 446.936 287.582C442.982 287.582 440.728 289.232 439.552 291.83H439.225V279.545H435.37V313H439.225V297.906ZM473.068 313.523C478.164 313.523 481.889 310.974 483.065 307.185L479.341 306.139C478.36 308.753 476.09 310.06 473.068 310.06C468.543 310.06 465.423 307.136 465.243 301.761H483.457V300.128C483.457 290.784 477.903 287.582 472.676 287.582C465.88 287.582 461.372 292.94 461.372 300.651C461.372 308.361 465.815 313.523 473.068 313.523ZM465.243 298.429C465.505 294.525 468.265 291.045 472.676 291.045C476.858 291.045 479.537 294.182 479.537 298.429H465.243ZM512.779 313.523C517.875 313.523 521.6 310.974 522.776 307.185L519.051 306.139C518.071 308.753 515.801 310.06 512.779 310.06C508.254 310.06 505.134 307.136 504.954 301.761H523.168V300.128C523.168 290.784 517.614 287.582 512.387 287.582C505.591 287.582 501.083 292.94 501.083 300.651C501.083 308.361 505.526 313.523 512.779 313.523ZM504.954 298.429C505.216 294.525 507.976 291.045 512.387 291.045C516.569 291.045 519.248 294.182 519.248 298.429H504.954ZM540.206 287.909H534.586V285.361C534.586 282.878 535.632 281.571 538.18 281.571C539.291 281.571 539.944 281.832 540.336 281.963L541.447 278.631C540.859 278.369 539.683 277.977 537.788 277.977C534.194 277.977 530.731 280.134 530.731 284.446V287.909H526.68V291.176H530.731V313H534.586V291.176H540.206V287.909ZM556.782 287.909H551.162V285.361C551.162 282.878 552.208 281.571 554.756 281.571C555.867 281.571 556.52 281.832 556.912 281.963L558.023 278.631C557.435 278.369 556.259 277.977 554.364 277.977C550.77 277.977 547.307 280.134 547.307 284.446V287.909H543.256V291.176H547.307V313H551.162V291.176H556.782V287.909ZM571.671 313.523C576.768 313.523 580.492 310.974 581.669 307.185L577.944 306.139C576.964 308.753 574.693 310.06 571.671 310.06C567.146 310.06 564.026 307.136 563.847 301.761H582.061V300.128C582.061 290.784 576.507 287.582 571.279 287.582C564.484 287.582 559.975 292.94 559.975 300.651C559.975 308.361 564.419 313.523 571.671 313.523ZM563.847 298.429C564.108 294.525 566.869 291.045 571.279 291.045C575.461 291.045 578.14 294.182 578.14 298.429H563.847ZM598.118 313.523C603.672 313.523 607.331 310.125 607.985 305.682H604.129C603.411 308.426 601.124 310.06 598.118 310.06C593.544 310.06 590.604 306.27 590.604 300.455C590.604 294.77 593.61 291.045 598.118 291.045C601.516 291.045 603.541 293.136 604.129 295.423H607.985C607.331 290.719 603.345 287.582 598.053 287.582C591.257 287.582 586.749 292.94 586.749 300.585C586.749 308.099 591.061 313.523 598.118 313.523ZM624.532 287.909H619.174V281.898H615.319V287.909H611.529V291.176H615.319V306.858C615.319 311.236 618.847 313.327 622.115 313.327C623.552 313.327 624.467 313.065 624.99 312.869L624.205 309.406C623.879 309.472 623.356 309.602 622.507 309.602C620.808 309.602 619.174 309.08 619.174 305.812V291.176H624.532V287.909ZM640.255 313.523C647.05 313.523 651.624 308.361 651.624 300.585C651.624 292.744 647.05 287.582 640.255 287.582C633.459 287.582 628.885 292.744 628.885 300.585C628.885 308.361 633.459 313.523 640.255 313.523ZM640.255 310.06C635.093 310.06 632.741 305.616 632.741 300.585C632.741 295.554 635.093 291.045 640.255 291.045C645.417 291.045 647.769 295.554 647.769 300.585C647.769 305.616 645.417 310.06 640.255 310.06ZM657.509 313H661.364V297.122C661.364 293.724 664.043 291.241 667.702 291.241C668.731 291.241 669.793 291.438 670.054 291.503V287.582C669.613 287.55 668.6 287.517 668.029 287.517C665.023 287.517 662.409 289.216 661.495 291.699H661.233V287.909H657.509V313ZM691.417 279.545H687.562V313H691.417V279.545ZM698.478 313H702.333V287.909H698.478V313ZM700.438 283.727C701.941 283.727 703.182 282.551 703.182 281.114C703.182 279.676 701.941 278.5 700.438 278.5C698.935 278.5 697.694 279.676 697.694 281.114C697.694 282.551 698.935 283.727 700.438 283.727ZM709.916 313H713.641V309.145H714.098C714.948 310.517 716.581 313.523 721.416 313.523C727.689 313.523 732.067 308.491 732.067 300.52C732.067 292.614 727.689 287.582 721.351 287.582C716.45 287.582 714.948 290.588 714.098 291.895H713.771V279.545H709.916V313ZM713.706 300.455C713.706 294.835 716.189 291.045 720.894 291.045C725.794 291.045 728.212 295.162 728.212 300.455C728.212 305.812 725.729 310.06 720.894 310.06C716.254 310.06 713.706 306.139 713.706 300.455ZM737.964 313H741.819V297.122C741.819 293.724 744.498 291.241 748.157 291.241C749.186 291.241 750.248 291.438 750.509 291.503V287.582C750.068 287.55 749.056 287.517 748.484 287.517C745.478 287.517 742.865 289.216 741.95 291.699H741.688V287.909H737.964V313ZM762.463 313.588C766.841 313.588 769.127 311.236 769.912 309.602H770.108V313H773.963V296.469C773.963 288.497 767.886 287.582 764.684 287.582C760.895 287.582 756.582 288.889 754.622 293.463L758.281 294.77C759.13 292.94 761.14 290.98 764.815 290.98C768.36 290.98 770.108 292.859 770.108 296.077V296.207C770.108 298.07 768.213 297.906 763.639 298.494C758.983 299.099 753.903 300.128 753.903 305.878C753.903 310.778 757.693 313.588 762.463 313.588ZM763.051 310.125C759.98 310.125 757.758 308.753 757.758 306.074C757.758 303.134 760.437 302.219 763.443 301.827C765.076 301.631 769.454 301.173 770.108 300.389V303.918C770.108 307.054 767.625 310.125 763.051 310.125ZM780.999 313H784.854V297.122C784.854 293.724 787.533 291.241 791.192 291.241C792.221 291.241 793.283 291.438 793.545 291.503V287.582C793.104 287.55 792.091 287.517 791.519 287.517C788.513 287.517 785.9 289.216 784.985 291.699H784.724V287.909H780.999V313ZM801.361 322.409C804.84 322.409 807.291 320.563 808.744 316.659L819.428 287.974L815.213 287.909L808.287 307.903H808.026L801.1 287.909H796.918L806.196 313.131L805.477 315.091C804.073 318.913 802.341 319.273 799.531 318.554L798.551 321.952C798.943 322.148 800.054 322.409 801.361 322.409Z"
    fill="var(--ifm-paper-foreground, black)"/>
  <g clip-path="url(#clip0)">
    <path
      d="M830.5 192.8C828.2 177.7 827.2 175.8 819.7 172C815.1 169.7 812.3 169 807.8 169C798.8 169 801 167.4 810.9 166.7C821.3 166 826.6 164.1 828 160.6C828.5 159.2 829.5 153.3 830.2 147.5C831 140.3 831.8 137 832.7 137C833.5 137 834 138.4 834 140.8C834.1 148.8 836.8 160.3 839.2 162.7C841.8 165.2 849.6 167 858.3 167C864.8 167 863.5 168.6 856.3 169.4C848.9 170.2 840.4 174.3 838.6 177.9C837.8 179.4 836.3 185.9 835.3 192.3C834.3 198.7 833.2 204 832.9 204C832.5 204 831.5 198.9 830.5 192.8Z"
      fill="#FC9538"/>
    <path
      d="M879.5 195.3C876.4 173.2 871.7 148.1 869.9 144.4C864.6 133.4 848.3 125.5 828.3 124.3C822.6 124 818 123.4 818 122.9C818 122.5 823.3 121.9 829.8 121.6C856.2 120.3 866.3 117.1 870.6 108.9C872 106 874.9 89.6002 877.6 69.2001C878.5 61.9001 879.6 55.7001 880 55.5001C880.4 55.2001 881.5 61.0001 882.4 68.3001C885.3 91.1002 887.9 104.8 890 109C892.2 113.2 897.8 117.1 904.5 118.9C906.7 119.5 915.8 120.5 924.8 121.2C933.7 121.9 941 122.7 941 123.1C941 123.4 937 124.3 932.1 124.9C910.5 127.6 895.7 135.2 891.2 145.8C889.2 150.5 882 190 882 196.6C882 201.7 880.2 200.7 879.5 195.3Z"
      fill="#FC9538"/>
    <path
      d="M808.6 120.3C806.7 106 804.7 97.8001 802.4 95.1001C799.4 91.4001 792.1 88.0001 787.4 88.0001C781.1 88.0001 784 85.6001 791.1 84.9001C799.2 84.2001 803.4 82.0001 804.9 77.8001C805.5 76.1001 806.6 69.5001 807.2 63.3001C808 56.6001 808.8 52.1001 809.5 52.3001C810 52.5001 811 57.1001 811.6 62.6001C813.9 81.8001 814.9 83.3001 827.5 85.1001C834.8 86.2001 837.7 88.0001 832.3 88.0001C828.5 88.0001 819.1 92.9001 816.8 96.1001C815.5 97.8001 814.2 103.1 812.7 111.8C811.5 119.1 810.3 125 809.9 125C809.6 125 809 122.9 808.6 120.3Z"
      fill="#FC9538"/>
    <path
      d="M832.3 198.2C832 192 829.5 179.8 827.9 176.8C827.4 175.8 826.2 175 825.4 175C824.6 175 824.1 174.6 824.4 174.1C825 173.3 823.5 172.3 821.6 172.2C821.1 172.2 820.4 171.8 820.1 171.3C818.2 168.8 814.5 167.9 808.4 168.5C803.9 169 802 168.9 802 168.1C802 167.4 804.2 167 807.9 167C811.2 167 814.6 166.7 815.6 166.3C816.8 165.9 817.1 166 816.6 166.8C816.2 167.5 816.4 168 816.9 168C817.5 168 818 167.6 818 167.1C818 166.3 822.9 164.7 824.5 164.9C826 165.1 829.1 160.5 830.1 156.4C830.8 153.9 831.9 151.6 832.7 151.3C833.8 150.9 833.9 149.4 833.4 144.6C833 141.3 832.2 138.2 831.6 137.8C830.9 137.3 831.2 137 832.3 137C833.6 137 834 137.9 834 140.8C834.1 148.2 836.8 160.2 838.9 162.4C840.1 163.7 840.8 164.8 840.6 165.1C840.4 165.3 841.1 165.6 842.3 165.6C853.7 166.3 862.8 167.5 862.3 168.2C862 168.8 860.5 169 859 168.7C857.5 168.4 855.7 168.6 855 169.3C854 170.2 853.9 170.2 854.4 169.3C854.9 168.3 853.9 168 850.3 168.1C846.3 168.2 846 168.3 848.5 168.9L851.5 169.5L847.4 170.8C843 172.1 836.6 177.5 837.5 179C837.9 179.6 837.6 180 837 180C836.3 180 836.1 180.8 836.5 181.9C836.8 183 836.6 184.1 836 184.5C835.3 184.9 835.1 186.3 835.4 187.9C835.9 189.9 835.8 190.2 835 189C834.1 187.8 834 188.5 834.3 191.8C834.6 194.1 834.5 196 834.1 196C833.6 196 833.5 197.8 833.7 200C833.9 202.2 833.7 204 833.3 204C832.9 204 832.4 201.4 832.3 198.2Z"
      fill="#FCB43C"/>
    <path
      d="M879.5 195.9C879.1 193.7 879.1 191.6 879.4 191.3C879.7 190.9 880 191.6 880 192.8C880 193.9 880.5 195.2 881 195.5C882.3 196.3 882.3 200 881.1 200C880.6 200 879.9 198.2 879.5 195.9Z"
      fill="#FCB43C"/>
    <path
      d="M878.6 188.4C877.7 186 878 184.2 879 186.5L879.9 188.5V186.5C880 183.2 878.2 176.8 877 176C876.3 175.6 876.2 174.2 876.6 172.7C876.9 171.1 876.8 170 876.2 170C875.6 170 875.4 168.2 875.6 165.9C875.9 163.2 875.7 162.1 874.9 162.5C874.2 163 874.1 161.8 874.5 158.8C874.9 155.5 874.8 154.9 874 156C873.1 157.2 872.9 156.8 873.2 154.3C873.5 152.5 873.3 151.3 872.8 151.6C872.3 151.9 872.2 150.9 872.6 149.4C873.1 147.6 872.9 146.9 872.3 147.3C871.3 147.9 869.4 143.5 869.9 141.7C870 141.2 869.6 141.1 869.1 141.4C868.3 141.9 866.8 139.8 866.6 137.8C866.5 137.5 866.1 136.8 865.6 136.3C865.1 135.8 865 136.1 865.5 137C865.9 137.8 864.9 137 863.1 135.2C861.3 133.3 859.5 132.2 858.8 132.6C858.1 133.1 858 132.9 858.5 132C859.1 131 858.9 130.8 857.6 131.3C856.5 131.8 856.1 131.6 856.6 130.8C857.1 130 856.8 129.9 855.6 130.3C854.7 130.7 854.1 130.6 854.4 130.1C855.2 128.9 847.4 125.6 845.5 126.4C844.4 126.8 844.1 126.6 844.6 125.8C845.1 125.1 844.6 124.9 843.2 125.2C841.8 125.6 841.3 125.4 841.6 124.5C842 123.6 840.8 123.1 837.7 122.9C834.2 122.6 833.4 122.8 833.8 123.9C834.2 124.9 833.9 125.1 833 124.5C832.2 124 828.5 123.7 824.8 123.8C820.4 124 818 123.7 818 123C818 122.4 819.7 121.9 821.8 121.9C830.1 121.9 851.6 120.6 853 120C853.3 119.9 854.6 119.9 856 120C857.4 120.1 858.2 119.9 857.8 119.5C857.4 119.1 859.4 117.6 862.3 116.1C868.6 113 871.7 108.5 872.6 101.7C873.1 98.0001 873.5 97.1001 874 98.5001C875 101.2 876.4 91.0001 875.5 87.8001C875 85.9001 875.1 85.8001 876 87.0001C876.9 88.2001 877.1 87.5001 876.7 83.8001C876.5 81.2001 876.6 79.3001 877 79.5001C877.4 79.8001 877.7 78.1001 877.6 75.7001C877.4 73.4001 877.8 71.2001 878.4 70.8001C879.1 70.3001 879.1 70.0001 878.2 70.0001C877.5 70.0001 877.2 69.5001 877.5 69.0001C877.8 68.4001 878.3 65.4001 878.6 62.3001C878.9 59.1001 879.5 56.1001 879.9 55.7001C880.9 54.7001 882.3 65.0001 882.3 73.3001C882.4 75.9001 882.7 78.0001 883 78.0001C883.4 78.0001 883.5 79.8001 883.3 82.1001C883.1 84.7001 883.4 85.9001 884 85.5001C884.7 85.1001 884.8 86.2001 884.4 88.8001C884 91.1001 884.2 93.0001 884.8 93.4001C885.4 93.7001 885.6 94.9001 885.3 96.0001C885 97.1001 885.2 98.0001 885.7 98.0001C886.3 98.0001 886.5 99.1001 886.2 100.5C886 101.9 886.2 103 886.9 103C887.4 103 887.7 103.7 887.4 104.5C887 105.3 887.2 106 887.8 106C888.3 106 889.3 107.4 890 109.1C890.7 110.8 892.8 113.2 894.6 114.4C896.5 115.7 897.7 117 897.3 117.4C896.9 117.8 897.4 117.8 898.4 117.4C899.7 116.9 900.1 117 899.7 117.7C898.8 119.2 902.5 120.5 915.3 123.4C918.9 124.2 918.7 125.3 914.5 127C912.6 127.7 911.4 128.8 911.7 129.3C912 129.9 911.8 130 911.2 129.6C909.3 128.5 898.8 134.7 895.5 138.9C893.9 141 892.2 142.6 891.8 142.3C891.4 142.1 891.3 142.7 891.7 143.6C892.1 144.7 892 145.1 891.2 144.6C889.9 143.8 887.7 151 888.6 153.4C888.9 154.3 888.7 155 888 155C887.4 155 887 155.8 887.1 156.8C887.3 157.7 887.1 159.4 886.7 160.5C885.7 163.7 883.7 175.9 883.5 180.5C883.4 182.2 882.8 183.4 882.2 183.3C881.5 183.1 881 184.2 881 185.9C881 189.3 879.5 190.8 878.6 188.4ZM880.7 71.8001C880.5 70.0001 880.3 71.4001 880.3 75.0001C880.3 78.6001 880.5 80.0001 880.7 78.3001C880.9 76.5001 880.9 73.5001 880.7 71.8001ZM880.7 62.8001C880.5 61.5001 880.3 62.3001 880.3 64.5001C880.2 66.7001 880.4 67.7001 880.7 66.8001C880.9 65.8001 880.9 64.0001 880.7 62.8001Z"
      fill="#FCB43C"/>
    <path
      d="M810.6 117.3C811.4 113.1 811.7 109.4 811.5 109.1C811.2 108.9 811 109.4 811 110.2C811 112.1 808 113.5 807.9 111.7C807.9 111 807.7 109.6 807.4 108.5C807.2 107.4 806.9 105.5 806.8 104.3C806.7 103 806.2 102 805.7 102C805.3 102 805.2 101.5 805.5 101C806.2 99.8001 804.4 96.6001 800.5 92.5001C798.1 89.8001 796.6 89.3001 788.3 88.3001C785.9 88.0001 784 87.5001 784 87.1001C784 85.5001 785.3 85.2001 788 86.2001C792.1 87.6001 803.2 82.4001 805.5 78.0001C806.4 76.3001 806.8 74.5001 806.5 74.1001C806.2 73.6001 806.4 72.0001 807 70.6001C807.5 69.2001 808 64.4001 808.1 60.0001C808.3 48.8001 810.2 50.1001 811.6 62.6001C813.9 81.8001 814.9 83.3001 827.5 85.1001C834.6 86.2001 837.8 88.0001 832.6 88.0001C831.3 88.0001 828.6 88.7001 826.6 89.5001C824.6 90.4001 822.4 90.8001 821.8 90.4001C821.2 90.0001 821 90.1001 821.3 90.7001C821.7 91.3001 820.8 92.5001 819.4 93.5001C815.9 95.8001 814.6 99.5001 812.4 113.3C811.4 119.7 810.3 125 810 125C809.6 125 809.9 121.5 810.6 117.3Z"
      fill="#FCB43C"/>
    <path
      d="M934.2 123.9C934.8 122.2 941 121.4 941 123C941 123.6 940 124 938.8 123.9C937.5 123.7 935.9 123.9 935.1 124.4C934.2 125 933.9 124.9 934.2 123.9Z"
      fill="#FCB43C"/>
    <path
      d="M832.2 190.5C832.6 186.2 829.8 178.3 826.6 174.7C824.8 172.7 822.8 171 822.2 171C820.6 171 820 169.6 821.1 168C821.9 166.7 822.1 166.7 822.9 167.9C824.3 170.1 828.8 166.7 831 161.7C832.7 157.6 832.8 157.5 833.5 160.1C834.4 163.8 839.2 168.1 843.2 168.9L846.5 169.6L842.4 172.2C838.1 175 834.1 181.5 833.9 186.1C833.9 187.4 833.4 189.4 832.9 190.5L832 192.5L832.2 190.5Z"
      fill="#FDE049"/>
    <path
      d="M880.2 177.9C879.5 176.8 878.3 170.6 877.5 164C875.3 144.7 869.7 135.6 856.2 129C851.4 126.7 849.6 125 852 125C852.6 125 853 124.3 853 123.5C853 122.7 854.2 121.8 855.8 121.4C868 118.8 872.8 113.2 875.5 98.4001C876.4 93.5001 877.4 88.4001 877.8 87.0001L878.4 84.5001L878.7 87.0001C878.9 88.4001 880 90.6001 881.1 92.0001C882.8 94.1001 883 94.2001 882.6 92.5001C881.6 88.7001 881.1 81.7001 881.9 82.6001C882.3 83.1001 883.2 87.6001 883.9 92.5001C885.5 104.7 887.3 109.7 892.1 115.2C895.2 118.8 897.4 120.3 901.6 121.6C905.7 123 906.9 123.8 906.5 125C906.1 126.3 906.7 126.5 909.7 126.3C913.2 126 912.9 126.2 907.4 128.3C900.4 131 896.2 133.7 890.2 139.4C884.6 144.8 883 150.1 882.4 166.5C882.1 173.6 881.8 179.5 881.7 179.7C881.5 179.8 880.9 179 880.2 177.9Z"
      fill="#FDE049"/>
    <path
      d="M802 168C802 167.5 803.6 167 805.6 167C807.7 167 808.9 167.4 808.5 168C808.2 168.6 806.6 169 804.9 169C803.3 169 802 168.6 802 168Z"
      fill="#FDE049"/>
    <path
      d="M852.1 167.8C848 167.3 843.9 166.4 843.1 165.9C841.8 165 841.8 165 843.4 165.4C844.4 165.8 849.2 166.3 854.1 166.7C859 167 862.7 167.7 862.4 168.1C862.1 168.6 861.3 168.9 860.7 168.9C860 168.8 856.1 168.3 852.1 167.8Z"
      fill="#FDE049"/>
    <path
      d="M835.8 163.3C835.2 162.5 835 161.7 835.4 161.3C835.7 161 836 161.3 836 162.1C836 163.2 836.2 163.2 836.8 162.2C837.5 161.2 838 161.4 839.3 162.8C840.8 164.5 840.8 164.6 838.9 164.6C837.8 164.6 836.4 164 835.8 163.3Z"
      fill="#FDE049"/>
    <path
      d="M814 99.9001C814 99.0001 814.9 97.1001 816.1 95.6001C817.2 94.2001 817.7 93.0001 817.1 93.0001C816.6 93.0001 815.8 93.5001 815.5 94.0001C815.1 94.6001 814.4 94.8001 813.9 94.5001C813.4 94.1001 812.5 95.0001 811.8 96.4001C810.5 99.5001 809.4 99.7001 808.5 97.1001C807.7 94.5001 801.7 88.0001 800.1 88.0001C799.4 88.0001 799.8 88.9001 801.1 90.1001L803.5 92.1001L801 90.9001C795.8 88.3001 795.8 87.4001 800.9 84.3001C805 81.7001 805.9 80.6001 806.8 76.7001C807.5 74.2001 808.1 70.6001 808.1 68.8001L808.2 65.5001L809 68.5001C809.6 71.0001 809.8 71.2001 810.5 69.7001C810.9 68.7001 811 66.0001 810.7 63.8001C810.3 61.0001 810.5 60.1001 811.1 61.1001C812.3 63.0001 812.2 69.7001 811 70.5001C810.5 70.8001 810 72.8001 810 74.9001C810 77.7001 810.7 79.3001 812.6 81.1001L815.2 83.5001L814.5 81.2001C813.8 78.9001 813.8 78.8001 815.7 80.7001C817.7 82.6001 817.7 85.5001 815.6 84.3001C815 84.0001 815.3 84.6001 816.3 85.8001C817.4 86.9001 817.9 88.4001 817.5 89.0001C816.9 89.9001 817.3 89.9001 818.8 89.1001C822.5 87.1001 823.6 88.0001 820.5 90.6001C817.8 92.9001 817.7 93.0001 820 92.0001C822.3 91.0001 822.3 91.1001 819.6 93.1001C818.1 94.3001 816.2 96.7001 815.4 98.4001C814.7 100.1 814.1 100.8 814 99.9001Z"
      fill="#FDE049"/>
    <path
      d="M784 87.1C784 86.5 784.5 85.8 785 85.5C785.6 85.2 786 85.3 786 85.9C786 86.4 786.8 87.1 787.8 87.3C788.8 87.6 788.4 87.8 786.8 87.9C785.2 87.9 784 87.6 784 87.1Z"
      fill="#FDE049"/>
    <path
      d="M818 84.9001C818 84.1001 827.1 84.8001 828 85.6001C828.2 85.9001 826.1 86.0001 823.2 85.9001C820.4 85.7001 818 85.3001 818 84.9001Z"
      fill="#FDE049"/>
    <path
      d="M811.4 76.7999C811.7 75.4999 812 73.5999 812.1 72.4999C812.1 71.0999 812.4 71.3999 813.1 73.4999C814.1 76.8999 813.6 78.9999 811.9 78.9999C811.2 78.9999 811 78.0999 811.4 76.7999Z"
      fill="#FDE049"/>
    <path
      d="M802 168C802 167.4 803.5 167 805.4 167.2C807.3 167.3 808.6 167.8 808.4 168.2C807.6 169.4 802 169.2 802 168Z"
      fill="#FFE298"/>
    <path
      d="M852.5 167.9C844.4 166.8 841.1 165.7 848.4 166.5C851.1 166.8 855.5 167 858.2 167C861.2 167 862.9 167.4 862.5 168C862.2 168.6 861.3 168.9 860.7 168.9C860 168.8 856.4 168.3 852.5 167.9Z"
      fill="#FFE298"/>
    <path
      d="M838.4 163.6C837.4 162.8 836.8 161.9 837.1 161.6C837.4 161.3 838.5 161.9 839.5 163C841.6 165.3 841.2 165.6 838.4 163.6Z"
      fill="#FFE298"/>
    <path
      d="M832.8 139.5C832.5 138.1 832.7 137 833.1 137C833.6 137 834 138.1 834 139.5C834 140.9 833.8 142 833.6 142C833.4 142 833 140.9 832.8 139.5Z"
      fill="#FFE298"/>
    <path
      d="M809.8 122.5C810 121.1 810.4 120 810.6 120C810.8 120 811 121.1 811 122.5C811 123.9 810.6 125 810.1 125C809.7 125 809.5 123.9 809.8 122.5Z"
      fill="#FFE298"/>
    <path
      d="M818 123C818 122.4 819.9 122.1 822.4 122.2C824.8 122.4 826.6 122.8 826.3 123.3C825.6 124.4 818 124.1 818 123Z"
      fill="#FFE298"/>
    <path
      d="M871.2 113C872.5 110.9 873.6 109.3 873.9 109.5C874.6 110.3 871.8 115.9 870.4 116.4C869.4 116.8 869.7 115.7 871.2 113Z"
      fill="#FFE298"/>
    <path
      d="M887.1 112.4C884.2 108.7 882.3 100.6 883 95C883.1 93.9 883.4 94.1 883.9 95.5C884.4 96.6 884.5 99 884.2 100.9C883.8 103.5 884 104.1 885 103.5C885.8 103 886.1 103.1 885.6 103.8C885.3 104.4 885.4 105.1 886 105.5C886.5 105.8 887 106.9 887 107.9C887 108.8 887.5 110.1 888.2 110.8C889.3 111.9 890.2 115 889.5 115C889.3 115 888.2 113.8 887.1 112.4Z"
      fill="#FFE298"/>
    <path
      d="M812.2 110.5C812.2 108.9 812.6 106.2 813 104.5C814.1 100.3 814.1 104.4 813.1 109.5C812.4 112.9 812.2 113 812.2 110.5Z"
      fill="#FFE298"/>
    <path
      d="M814 99.8999C814 97.7999 817.6 93.2999 820.3 91.8999C821.7 91.2999 821.5 91.6999 819.6 93.0999C818.1 94.2999 816.2 96.6999 815.4 98.3999C814.7 100.1 814.1 100.8 814 99.8999Z"
      fill="#FFE298"/>
    <path
      d="M882.7 92.3C882.3 92 882.1 89.6 882.1 87.1L882.3 82.5L883 87.5C883.8 92.8 883.7 93.4 882.7 92.3Z"
      fill="#FFE298"/>
    <path
      d="M784 87.0001C784 85.8001 784.8 85.8001 787.5 87.0001C789.3 87.8001 789.2 87.9001 786.8 87.9001C785.2 88.0001 784 87.6001 784 87.0001Z"
      fill="#FFE298"/>
    <path
      d="M832 86.9999C833.9 85.6999 835 85.6999 835 86.9999C835 87.5999 834 87.9999 832.8 87.9999C830.9 87.9999 830.8 87.7999 832 86.9999Z"
      fill="#FFE298"/>
    <path
      d="M799.5 85.9C801.2 85.2 802.9 84.1 803.3 83.4C803.7 82.6 804.8 82 805.6 82C808.5 82 803.5 86 799.9 86.5L796.5 87L799.5 85.9Z"
      fill="#FFE298"/>
    <path
      d="M806 80.3C806 79.8 806.7 77.3 807.5 74.5L809 69.5L808.4 74C808.1 76.5 807.8 79.1 807.7 79.8C807.7 81.1 806 81.6 806 80.3Z"
      fill="#FFE298"/>
    <path
      d="M812.6 76.5C812.3 75.6 812 73.9 812.1 72.7C812.2 71.1 812.5 71.5 813.1 73.9C814.1 77.3 813.7 79.4 812.6 76.5Z"
      fill="#FFE298"/>
    <path
      d="M811.2 67C811.2 65.1 811.4 64.3 811.7 65.3C811.9 66.2 811.9 67.8 811.7 68.8C811.4 69.7 811.2 68.9 811.2 67Z"
      fill="#FFE298"/>
    <path
      d="M809.4 55.6C808.8 53.6 808.7 52 809.2 52C810.4 52 811.2 54.4 810.8 57C810.6 58.7 810.3 58.4 809.4 55.6Z"
      fill="#FFE298"/>
  </g>
  <defs>
    <clipPath id="clip0">
      <rect width="160" height="160" fill="white"
            transform="translate(781 46)"/>
    </clipPath>
  </defs>
</svg>
