<svg xmlns="http://www.w3.org/2000/svg" width="160" height="160" viewBox="0 0 1600 1600"><path fill="#7f2400" d="M1367 1532c-40-37-85-77-102-87-16-10-58-42-91-71-34-29-72-55-85-59s-37-17-53-28c-45-32-288-147-310-147-12 0-30-7-40-15-11-8-31-15-44-15s-57-11-98-25-91-25-112-25c-23 0-59-13-97-33-49-28-66-45-101-102-23-37-50-72-60-78-39-21-98-72-124-108l-27-37 3-182c3-208 13-243 84-300 22-18 49-49 60-69C208 76 294 30 407 24c41-2 91-8 111-13s70-8 110-6c90 4 118 21 247 149 50 48 106 99 126 112 20 12 52 45 70 71s48 70 66 97c18 26 33 56 33 66 0 9 13 31 30 48 17 18 30 42 30 55 0 21 14 47 86 157 12 19 26 49 30 65 4 17 15 41 26 54 10 13 18 29 18 35s15 43 33 81c18 39 39 90 46 115s19 56 26 70 16 41 20 60 11 40 16 45c4 6 10 22 12 35 3 14 14 41 25 60 16 28 19 47 15 93-3 31-9 57-14 57s-9 6-9 13c0 24-39 51-81 54-38 4-44 0-112-65"/><path fill="#943102" d="M1367 1532c-40-37-85-77-102-87-16-10-58-42-91-71-34-29-72-55-85-59s-37-17-53-28c-45-32-288-147-310-147-12 0-30-7-40-15-11-8-31-15-44-15s-57-11-98-25-91-25-112-25c-23 0-59-13-97-33-49-28-66-45-101-102-23-37-50-72-60-78-39-21-98-72-124-108l-27-37 3-182c3-208 13-243 84-300 22-18 49-49 60-69C208 76 294 30 407 24c41-2 91-8 111-13s70-8 110-6c90 4 118 21 247 149 50 48 106 99 126 112 20 12 52 45 70 71s48 70 66 97c18 26 33 56 33 66 0 9 13 31 30 48 17 18 30 42 30 55 0 21 14 47 86 157 12 19 26 49 30 65 4 17 15 41 26 54 10 13 18 29 18 35s15 43 33 81c18 39 39 90 46 115s19 56 26 70 16 41 20 60 11 40 16 45c4 6 10 22 12 35 3 14 14 41 25 60 16 28 19 47 15 93-3 31-9 57-14 57s-9 6-9 13c0 24-39 51-81 54-38 4-44 0-112-65M680 910c0-6-14-19-31-29-26-16-35-17-51-8-17 11-16 13 19 29 44 20 63 22 63 8m47-47c-4-3-10-3-14 0-3 4 0 7 7 7s10-3 7-7m-144-9c9-9-31-51-65-70-38-20-37 1 1 44 29 31 50 39 64 26"/><path fill="#af3a01" d="M1367 1532c-40-37-85-77-102-87-16-10-58-42-91-71-34-29-72-55-85-59s-37-17-53-28c-45-32-288-147-310-147-12 0-30-7-40-15-11-8-31-15-44-15s-57-11-98-25-91-25-112-25c-23 0-59-13-97-33-49-28-66-45-101-102-23-37-50-72-60-78-39-21-98-72-124-108l-27-37 3-182c3-208 13-243 84-300 22-18 49-49 60-69C208 76 294 30 407 24c41-2 91-8 111-13s70-8 110-6c90 4 118 21 247 149 50 48 106 99 126 112 20 12 52 45 70 71s48 70 66 97c18 26 33 56 33 66 0 9 13 31 30 48 17 18 30 42 30 55 0 21 14 47 86 157 12 19 26 49 30 65 4 17 15 41 26 54 10 13 18 29 18 35s15 43 33 81c18 39 39 90 46 115s19 56 26 70 16 41 20 60 11 40 16 45c4 6 10 22 12 35 3 14 14 41 25 60 16 28 19 47 15 93-3 31-9 57-14 57s-9 6-9 13c0 24-39 51-81 54-38 4-44 0-112-65M709 921c7-5 11-14 7-19-4-6 2-16 13-22 13-6 18-16 14-26-5-13-17-15-59-12-64 5-111 32-93 54 21 25 93 41 118 25m-352-58c-4-3-10-3-14 0-3 4 0 7 7 7s10-3 7-7m248-18c31-19 35-25 20-26-11-1-24-1-28 0-5 1-28-14-50-34-23-19-50-41-59-49-41-35-108-57-108-35 0 21 2 24 22 32 19 7 19 6 7-10-7-10 0-6 17 10 30 27 51 36 39 17-3-5-1-10 4-10 14 0 14 17 0 26-7 4 8 25 37 55 27 27 51 49 54 49s23-12 45-25m100-25c3-5-1-10-10-10s-13 5-10 10c3 6 8 10 10 10s7-4 10-10m56-10c10 0 19-4 19-10 0-13-6-13-31 0-10 6-19 16-18 23q0 13.5 6 0c2-7 13-13 24-13M340 710c0-5-7-10-17-10-9 0-31-11-50-26-32-24-33-24-33-5 0 14 11 26 33 35 39 17 67 20 67 6m507-37c-4-3-7 0-7 7s3 10 7 7c3-4 3-10 0-14"/><path fill="#b94703" d="M1367 1532c-40-37-85-77-102-87-16-10-58-42-91-71-34-29-72-55-85-59s-37-17-53-28c-45-32-288-147-310-147-12 0-30-7-40-15-11-8-31-15-44-15s-57-11-98-25-91-25-112-25c-23 0-59-13-97-33-49-28-66-45-101-102-23-37-50-72-60-78-39-21-98-72-124-108l-27-37 3-182c3-208 13-243 84-300 22-18 49-49 60-69C208 76 294 30 407 24c41-2 91-8 111-13s70-8 110-6c90 4 118 21 247 149 50 48 106 99 126 112 20 12 52 45 70 71s48 70 66 97c18 26 33 56 33 66 0 9 13 31 30 48 17 18 30 42 30 55 0 21 14 47 86 157 12 19 26 49 30 65 4 17 15 41 26 54 10 13 18 29 18 35s15 43 33 81c18 39 39 90 46 115s19 56 26 70 16 41 20 60 11 40 16 45c4 6 10 22 12 35 3 14 14 41 25 60 16 28 19 47 15 93-3 31-9 57-14 57s-9 6-9 13c0 24-39 51-81 54-38 4-44 0-112-65M709 921c7-5 11-13 8-18s11-20 32-34c25-15 35-27 27-32s-5-12 8-22c11-8 16-18 13-22-4-4-57-7-118-8-109-1-111-1-131-28-11-15-39-38-61-51-48-28-147-43-158-25s-63-27-69-59c-3-15-15-31-26-37-12-6-28-16-36-23-35-28-38 34-5 75 13 15 26 35 30 45 3 9 19 19 35 23 22 4 32 14 37 33 4 15 10 21 12 15 3-7 17-13 31-13 52 0 106 28 159 81l52 53 46-23c25-12 51-21 58-18 6 2-4 11-23 20-61 27-65 32-44 55 20 22 96 30 123 13m-312-66c-15-14-27-30-27-35 0-6-9-10-20-10q-21 0-18 18c2 10-2 16-10 14-8-1-12 3-10 10 4 11 41 21 98 27 9 0 4-9-13-24m303-135c0-5-9-10-20-10s-20 5-20 10c0 6 9 10 20 10s20-4 20-10m27-7c-4-3-10-3-14 0-3 4 0 7 7 7s10-3 7-7m159-20c-7-7-26 7-26 19 0 6 6 6 15-2 9-7 13-15 11-17m-26-32c0-11-5-10-20 4s-17 20-8 26c13 8 28-7 28-30"/><path fill="#cd3b01" d="M1367 1532c-40-37-85-77-102-87-16-10-58-42-91-71-34-29-72-55-85-59s-37-17-53-28c-45-32-288-147-310-147-12 0-30-7-40-15-11-8-31-15-44-15s-57-11-98-25-91-25-112-25c-23 0-59-13-97-33-49-28-66-45-101-102-23-37-50-72-60-78-39-21-98-72-124-108l-27-37 3-182c3-208 13-243 84-300 22-18 49-49 60-69C208 76 294 30 407 24c41-2 91-8 111-13s70-8 110-6c90 4 118 21 247 149 50 48 106 99 126 112 20 12 52 45 70 71s48 70 66 97c18 26 33 56 33 66 0 9 13 31 30 48 17 18 30 42 30 55 0 21 14 47 86 157 12 19 26 49 30 65 4 17 15 41 26 54 10 13 18 29 18 35s15 43 33 81c18 39 39 90 46 115s19 56 26 70 16 41 20 60 11 40 16 45c4 6 10 22 12 35 3 14 14 41 25 60 16 28 19 47 15 93-3 31-9 57-14 57s-9 6-9 13c0 24-39 51-81 54-38 4-44 0-112-65M703 923c10-2 16-11 13-18-3-8 15-23 45-39 27-15 50-34 51-42 0-8 1-20 2-26 1-7-12-15-28-18-21-4-30-12-33-29-2-17 1-22 11-18 20 8 27-3 15-24-7-13-21-19-47-19-46 0-112 18-112 30 0 15 39 32 60 25 11-4 20-3 20 2s-23 14-51 20c-59 14-71 10-134-48-51-47-81-59-153-60-57-1-97-14-88-27 7-11-15-34-63-67-23-16-47-39-51-51-12-31-30-40-30-15 0 11 8 25 18 30 13 7 19 22 20 47 1 21 6 42 12 48 5 5 10 18 10 28s6 18 14 18 16 6 19 14 19 17 35 21c22 4 32 14 37 33 4 15 10 21 12 15 14-39 130 4 195 73l47 48 45-23c26-12 52-21 59-18 6 2-4 11-23 20-62 28-64 31-45 61 16 25 22 27 59 21 23-4 49-9 59-12m-311-84c-41-39-62-43-62-13 0 8-7 14-16 14-33 0 6 29 44 33 80 8 78 9 34-34m-172-63c0-3-5-8-12-12s-8-3-4 4c7 12 16 16 16 8m690-60c0-8-3-22-6-31-6-14-10-13-31 7-22 21-23 23-6 29 29 12 43 10 43-5m-44-60c10-24 22-43 25-40 4 2 12-3 19-10 9-12 6-18-14-31-14-10-26-21-26-26 0-16 32-10 46 9 12 15 13 13 14-22 0-22-3-36-7-33-3 4-12 2-19-4-10-8-24-1-56 29-24 22-52 41-62 43s-24 11-29 20c-15 23 15 52 45 45 13-3 17-3 10 0-10 5-10 9-1 20s8 15-6 20c-13 5-14 9-3 15 28 18 46 9 64-35m94-108c0-18-2-20-9-8-6 8-7 18-5 22 9 14 14 9 14-14m-210-22c0-3-4-8-10-11-5-3-10-1-10 4 0 6 5 11 10 11 6 0 10-2 10-4"/><g fill="#d14c02"><path d="M1367 1532c-40-37-85-77-102-87-16-10-58-42-91-71-34-29-72-55-85-59s-37-17-53-28c-45-32-288-147-310-147-12 0-30-7-40-15-11-8-31-15-44-15s-57-11-98-25-91-25-112-25c-23 0-59-13-97-33-49-28-66-45-101-102-23-37-50-72-60-78-39-21-98-72-124-108l-27-37 3-182c3-208 13-243 84-300 22-18 49-49 60-69C208 76 294 30 407 24c41-2 91-8 111-13s70-8 110-6c90 4 118 21 247 149 50 48 106 99 126 112 20 12 52 45 70 71s48 70 66 97c18 26 33 56 33 66 0 9 13 31 30 48 17 18 30 42 30 55 0 21 14 47 86 157 12 19 26 49 30 65 4 17 15 41 26 54 10 13 18 29 18 35s15 43 33 81c18 39 39 90 46 115s19 56 26 70 16 41 20 60 11 40 16 45c4 6 10 22 12 35 3 14 14 41 25 60 16 28 19 47 15 93-3 31-9 57-14 57s-9 6-9 13c0 24-39 51-81 54-38 4-44 0-112-65M703 923c10-2 16-11 13-18-3-8 15-23 45-39 27-15 50-34 51-42 0-8 1-20 2-26 1-7-12-15-28-18-21-4-30-12-33-28-2-17 1-22 14-20 12 2 18-3 18-17 0-19-6-20-82-18-49 2-83-2-83-7 0-15-34-12-56 5-23 17-60 19-70 4-12-20-71-39-126-40-77-1-88-6-88-37 0-29-16-43-83-74-22-10-36-22-32-28 7-12-12-40-26-40-18 0-9 48 9 52 14 4 19 16 20 43 1 21 6 43 12 49 5 5 10 21 10 35 0 29 26 61 50 61 23 0 50 31 33 37-24 8-13 49 20 80 25 24 44 32 92 38l60 7-22-24c-13-13-23-35-23-48 0-23 0-23 21-4 20 18 21 18 31 1 8-16 14-14 51 23 23 22 45 40 49 40s25-9 47-21c23-11 46-19 53-16 8 3 1 9-14 16-16 6-39 18-52 26l-24 16 22 25c18 21 27 23 61 18 22-3 48-8 58-11M224 766c-6-16-24-23-24-8 0 10 22 33 27 28 2-2 1-11-3-20m-31-51c-21-29-38-33-23-6 8 16 20 25 38 30 2 1-5-10-15-24m717 1c0-8-3-22-6-31-6-14-10-13-31 7-22 21-23 23-6 29 29 12 43 10 43-5m-44-60c10-24 22-43 25-40 4 2 12-3 19-10 9-12 6-18-14-31-14-10-26-21-26-26 0-16 32-10 46 9 12 15 13 13 14-22 0-22-3-36-7-33-3 4-12 2-19-4-10-8-24-1-56 29-24 22-52 41-62 43s-24 11-29 20c-15 23 15 52 45 45 13-3 17-3 10 0-10 5-10 9-1 20s8 15-6 20c-13 5-14 9-3 15 28 18 46 9 64-35m-166-46c0-5-9-10-20-10s-20 5-20 10c0 6 9 10 20 10s20-4 20-10m-340-20c0-5-5-10-11-10-5 0-7 5-4 10 3 6 8 10 11 10 2 0 4-4 4-10m600-42c0-18-2-20-9-8-6 8-7 18-5 22 9 14 14 9 14-14m-210-22c0-3-4-8-10-11-5-3-10-1-10 4 0 6 5 11 10 11 6 0 10-2 10-4"/><path d="M670 750c19-13 30-13 30 0 0 6-10 10-22 10-19 0-20-2-8-10"/></g><path fill="#ea3d00" d="M1367 1532c-40-37-85-77-102-87-16-10-58-42-91-71-34-29-72-55-85-59s-37-17-53-28c-45-32-288-147-310-147-12 0-30-7-40-15-11-8-31-15-44-15s-57-11-98-25-91-25-112-25c-23 0-59-13-97-33-49-28-66-45-101-102-23-37-50-72-60-78-39-21-98-72-124-108l-27-37 3-182c3-208 13-243 84-300 22-18 49-49 60-69C208 76 294 30 407 24c41-2 91-8 111-13s70-8 110-6c90 4 118 21 247 149 50 48 106 99 126 112 20 12 52 45 70 71s48 70 66 97c18 26 33 56 33 66 0 9 13 31 30 48 17 18 30 42 30 55 0 21 14 47 86 157 12 19 26 49 30 65 4 17 15 41 26 54 10 13 18 29 18 35s15 43 33 81c18 39 39 90 46 115s19 56 26 70 16 41 20 60 11 40 16 45c4 6 10 22 12 35 3 14 14 41 25 60 16 28 19 47 15 93-3 31-9 57-14 57s-9 6-9 13c0 24-39 51-81 54-38 4-44 0-112-65M706 923c8-3 13-11 10-18-2-7 15-24 42-39 26-14 58-34 72-45l25-20-23-23c-26-29-27-32-7-52 9-8 26-38 39-65 13-28 25-48 28-46 3 3 11-2 18-10 19-23 29-103 18-141-7-27-14-33-40-36-34-3-35-6-53-91-9-46-30-26-30 29 0 43-3 50-27 62-17 8-28 21-28 33 0 13-7 19-21 19-24 0-48 26-49 51 0 9-12 30-27 46-16 17-28 38-28 47 0 15-40 46-92 72-7 3-27-6-44-20s-35-26-40-26-9-9-9-20c0-22 12-25 40-10 20 11 50 4 50-11 0-5-8-12-17-15-58-18-64-23-53-44 14-27 6-25-35 6-21 15-36 21-40 15-10-17-53-13-64 7q-10.5 16.5-18 6c-9-13-49-27-78-28-14-1-28-17-47-54-25-49-28-52-38-32-15 28-9 65 10 65 11 0 15 11 16 38 0 21 6 43 12 49 7 7 12 23 12 36 0 36 18 62 44 62 35 0 52 25 32 45-19 19-12 37 31 77 24 23 40 28 109 34 56 5 83 3 88-5 8-12-34-33-69-35-13-1-21-9-24-26l-3-25 22 20c21 19 22 19 32 1 9-17 14-15 48 23 21 22 43 41 49 41s28-9 50-21c23-11 46-19 53-17 6 2-15 18-48 34-59 29-69 46-40 67 11 8 114 1 142-10m-188-15c-3-7-15-13-28-13s-25 6-27 13q-4.5 12 27 12c21 0 30-4 28-12M230 771c-10-20-30-29-30-14 0 10 33 44 37 39 3-2 0-14-7-25m17-18c-4-3-7 0-7 7s3 10 7 7c3-4 3-10 0-14m-54-38c-18-25-40-35-27-12 14 24 27 37 36 37 5 0 1-11-9-25m721 9c3-9 6-32 6-51v-36l-35 39c-40 45-41 51-17 57 32 9 40 7 46-9m56-178c0-47-22-16-26 36-3 42-3 42 11 18 8-14 14-38 15-54M225 428c4-3 9-27 11-53 6-47 5-47-17-32-12 9-30 34-39 55l-18 40 29-2c16-1 31-5 34-8m682-105c-4-3-7 0-7 7s3 10 7 7c3-4 3-10 0-14"/><path fill="#b1562f" d="M1367 1532c-40-37-85-77-102-87-16-10-58-42-91-71-34-29-72-55-85-59s-37-17-53-28c-45-32-288-147-310-147-12 0-30-7-40-15-11-8-31-15-44-15s-57-11-98-25-91-25-112-25c-23 0-59-13-97-33-49-28-66-45-101-102-23-37-50-72-60-78-39-21-98-72-124-108l-27-37 3-182c3-208 13-243 84-300 22-18 49-49 60-69C208 76 294 30 407 24c41-2 91-8 111-13s70-8 110-6c90 4 118 21 247 149 50 48 106 99 126 112 20 12 52 45 70 71s48 70 66 97c18 26 33 56 33 66 0 9 13 31 30 48 17 18 30 42 30 55 0 21 14 47 86 157 12 19 26 49 30 65 4 17 15 41 26 54 10 13 18 29 18 35s15 43 33 81c18 39 39 90 46 115s19 56 26 70 16 41 20 60 11 40 16 45c4 6 10 22 12 35 3 14 14 41 25 60 16 28 19 47 15 93-3 31-9 57-14 57s-9 6-9 13c0 24-39 51-81 54-38 4-44 0-112-65M706 923c8-3 13-11 10-18-2-7 15-24 42-39 26-14 58-34 72-45l25-20-23-23c-26-29-27-32-7-52 9-8 26-38 39-65 13-28 25-48 28-46 3 3 11-2 18-10 19-23 29-103 18-141-7-27-14-33-40-36-34-3-35-6-53-91-9-46-30-26-30 29 0 43-3 50-27 62-17 8-28 21-28 33 0 13-7 19-23 19-15 0-28 9-34 23-6 12-16 34-23 49-7 14-23 29-35 32-13 3-42 28-65 56-23 27-46 50-50 50-5 0-24-10-44-22-50-33-48-76 3-49 10 6 28 7 40 4 17-4 19-8 10-19-6-8-20-14-31-14-27 0-33-27-12-52 19-20 19-21-6-13-14 4-38 18-54 30l-29 23-29-21c-28-21-30-21-42-4-15 19-46 23-63 6-6-6-9-28-6-49 4-26 0-47-12-67-16-28-16-31 4-76 23-50 27-77 11-77-5 0-10 5-10 10 0 6-12 23-27 38-16 15-36 44-45 65-16 36-16 37 2 37 44 0 81 73 44 87-17 6-63-41-64-67 0-11-4-10-16 5-18 25-15 70 6 70 11 0 15 11 16 38 0 21 6 43 12 49 7 7 12 24 12 39s11 40 24 56c13 15 27 39 31 52s23 40 41 61c33 36 39 39 109 45 41 4 82 4 91 1 15-6 15-8-1-26-23-26-10-26 22 0 32 25 43 25 92-1 23-11 46-19 53-17 6 2-15 18-48 34-59 29-69 46-40 67 11 8 114 1 142-10m-188-15c-3-7-15-13-28-13s-25 6-27 13q-4.5 12 27 12c21 0 30-4 28-12M230 771c-10-20-30-29-30-14 0 10 33 44 37 39 3-2 0-14-7-25m-37-56c-18-25-40-35-27-12 14 24 27 37 36 37 5 0 1-11-9-25m721 9c3-9 6-32 6-51v-36l-35 39c-40 45-41 51-17 57 32 9 40 7 46-9m56-178c0-47-22-16-26 36-3 42-3 42 11 18 8-14 14-38 15-54m-63-223c-4-3-7 0-7 7s3 10 7 7c3-4 3-10 0-14"/><path fill="#f35701" d="M1367 1532c-40-37-85-77-102-87-16-10-58-42-91-71-34-29-72-55-85-59s-37-17-53-28c-45-32-288-147-310-147-12 0-30-7-40-15-11-8-31-15-44-15s-57-11-98-25-91-25-112-25c-23 0-59-13-97-33-49-28-66-45-101-102-23-37-50-72-60-78-39-21-98-72-124-108l-27-37 3-182c3-208 13-243 84-300 22-18 49-49 60-69C208 76 294 30 407 24c41-2 91-8 111-13s70-8 110-6c90 4 118 21 247 149 50 48 106 99 126 112 20 12 52 45 70 71s48 70 66 97c18 26 33 56 33 66 0 9 13 31 30 48 17 18 30 42 30 55 0 21 14 47 86 157 12 19 26 49 30 65 4 17 15 41 26 54 10 13 18 29 18 35s15 43 33 81c18 39 39 90 46 115s19 56 26 70 16 41 20 60 11 40 16 45c4 6 10 22 12 35 3 14 14 41 25 60 16 28 19 47 15 93-3 31-9 57-14 57s-9 6-9 13c0 24-39 51-81 54-38 4-44 0-112-65M728 915c51-24 71-42 32-30-29 9-25-2 8-20 15-8 40-26 57-39l29-25-22-24c-27-28-27-28-2-57 15-17 20-19 20-8 0 21 50 34 61 16 5-7 9-33 9-57 0-42-1-43-15-25-22 29-18 0 6-40 25-43 42-47 34-8l-6 27 15-25c19-32 21-80 2-80-8 0-18-19-25-44-10-40-14-45-43-48-34-3-35-6-53-91-9-46-30-26-30 29 0 43-3 50-27 62-17 8-28 21-28 33 0 13-7 19-23 19-15 0-28 9-34 23-6 12-16 34-23 49-7 14-23 29-35 32-13 3-42 28-65 56-23 27-46 50-50 50-5 0-24-10-44-22-50-33-48-76 3-49 10 6 28 7 40 4 17-4 19-8 10-19-6-8-20-14-31-14-27 0-33-27-12-52 19-20 19-21-6-13-14 4-38 18-54 30l-29 23-29-21c-28-21-30-21-42-4-15 19-46 23-63 6-6-6-9-28-6-49 4-26 0-47-12-67-16-28-16-31 4-76 23-50 27-77 11-77-5 0-10 5-10 10 0 6-12 23-27 38-16 15-36 44-45 65-16 36-16 37 2 37 44 0 81 73 44 87-17 6-63-41-64-66 0-11-6-9-20 7-26 27-25 47 1 66 16 11 22 28 25 66 3 34 13 64 32 92 15 22 36 58 47 78 11 21 33 52 48 70 26 31 33 33 103 37 42 3 83 2 91-1 14-6 14-9-2-26-23-26-10-26 22 0 14 11 37 20 52 20 25 1 25 1 5 13-21 12-21 35 0 49 24 17 112 7 164-17m-301-1c-3-3-12-4-19-1-8 3-5 6 6 6 11 1 17-2 13-5m91-6c-3-7-15-13-28-13s-25 6-27 13q-4.5 12 27 12c21 0 30-4 28-12M230 771c-6-12-17-21-26-21-11 0-12 4-4 19 9 18 31 32 38 25 2-1-1-12-8-23m-36-56c-16-25-34-33-34-16 0 12 29 41 41 41 5 0 2-11-7-25m713-392c-4-3-7 0-7 7s3 10 7 7c3-4 3-10 0-14"/><g fill="#db592c"><path d="M1367 1532c-40-37-85-77-102-87-16-10-58-42-91-71-34-29-72-55-85-59s-37-17-53-28c-45-32-288-147-310-147-12 0-30-7-40-15-11-8-31-15-44-15s-57-11-98-25-91-25-112-25c-23 0-59-13-97-33-49-28-66-45-101-102-23-37-50-72-60-78-39-21-98-72-124-108l-27-37 3-182c3-208 13-243 84-300 22-18 49-49 60-69C208 76 294 30 407 24c41-2 91-8 111-13s70-8 110-6c90 4 118 21 247 149 50 48 106 99 126 112 20 12 52 45 70 71s48 70 66 97c18 26 33 56 33 66 0 9 13 31 30 48 17 18 30 42 30 55 0 21 14 47 86 157 12 19 26 49 30 65 4 17 15 41 26 54 10 13 18 29 18 35s15 43 33 81c18 39 39 90 46 115s19 56 26 70 16 41 20 60 11 40 16 45c4 6 10 22 12 35 3 14 14 41 25 60 16 28 19 47 15 93-3 31-9 57-14 57s-9 6-9 13c0 24-39 51-81 54-38 4-44 0-112-65M728 915c54-25 69-41 30-30-21 5-22 4-5-7 78-55 116-88 107-93-14-8 6-35 26-35s34-33 34-81c0-40-1-41-15-23-22 29-18 0 6-40 25-43 42-47 34-8l-6 27 15-25c20-32 21-80 2-80-9 0-19-19-26-50-7-27-21-62-33-76-19-25-21-25-33-9-15 20-18 16-28-44-4-19-14-43-24-54-9-11-17-28-17-40 0-13-22-38-60-69-75-60-113-78-167-78h-43l47 25c26 14 56 25 66 25s27 10 38 22l19 22-27-17c-37-23-46-21-41 7 4 20 14 27 57 37 86 20 96 42 45 98-29 32-30 38-24 86 6 50 5 53-22 63-15 7-41 11-58 9-24-2-30 2-30 18 0 11 9 24 21 29 21 9 20 10-12 43-40 40-51 41-66 8-10-21-8-29 10-48 12-13 22-28 22-34 0-15-30-25-44-14-6 5-38 19-70 31-56 21-60 22-93 6-18-9-42-16-52-16-20 0-37-42-25-61 3-5 0-16-6-24-13-16-8-50 17-102 11-24 12-36 3-52-9-19-7-23 16-32 15-5 33-8 41-5 18 7 17 32-2 40-19 7-20 26-1 26 8 0 22-14 30-32 20-39 20-48 0-48-10 0-14-7-12-22 2-18 10-23 33-24 33 0 55-10 55-23 0-10-47-3-80 12-50 23-100 60-105 78-4 10-22 33-41 51s-34 42-34 54c0 26-58 144-71 144-17 0-9 39 12 54 16 11 22 28 25 66 3 34 13 64 32 92 15 22 36 58 47 78 11 21 33 53 49 71 28 33 30 34 120 36 107 3 108 3 77 12-44 12-33 27 26 38 101 18 153 15 211-12m-301-1c-3-3-12-4-19-1-8 3-5 6 6 6 11 1 17-2 13-5M230 771c-6-12-17-21-26-21-11 0-12 4-4 19 9 18 31 32 38 25 2-1-1-12-8-23m-36-56c-16-25-34-33-34-16 0 12 29 41 41 41 5 0 2-11-7-25M80 516c0-3-5-8-12-12s-8-3-4 4c7 12 16 16 16 8m253-126c-7-8-22 24-16 34 4 5 10 1 13-10 4-10 6-21 3-24m637 26c0-2-3-11-6-20-9-24-33-20-27 4 4 16 33 30 33 16m-621-89c-9-21-15-24-25-16-11 9-10 15 4 34 22 30 37 16 21-18m558-4c-4-3-7 0-7 7s3 10 7 7c3-4 3-10 0-14"/><path d="M520 880c0-5 15-10 33-10 24 0 28 3 17 10-20 13-50 13-50 0m320-170c0-7 3-10 7-7 3 4 3 10 0 14-4 3-7 0-7-7M588 113c7-3 16-2 19 1 4 3-2 6-13 5-11 0-14-3-6-6"/></g><g fill="#fe6801"><path d="M1367 1532c-40-37-85-77-102-87-16-10-58-42-91-71-34-29-72-55-85-59s-37-17-53-28c-45-32-288-147-310-147-12 0-30-7-40-15-11-8-31-15-44-15s-57-11-98-25-91-25-112-25c-23 0-59-13-97-33-49-28-66-45-101-102-23-37-50-72-60-78-39-21-98-72-124-108l-27-37 3-182c3-208 13-243 84-300 22-18 49-49 60-69C208 76 294 30 407 24c41-2 91-8 111-13s70-8 110-6c90 4 118 21 247 149 50 48 106 99 126 112 20 12 52 45 70 71s48 70 66 97c18 26 33 56 33 66 0 9 13 31 30 48 17 18 30 42 30 55 0 21 14 47 86 157 12 19 26 49 30 65 4 17 15 41 26 54 10 13 18 29 18 35s15 43 33 81c18 39 39 90 46 115s19 56 26 70 16 41 20 60 11 40 16 45c4 6 10 22 12 35 3 14 14 41 25 60 16 28 19 47 15 93-3 31-9 57-14 57s-9 6-9 13c0 24-39 51-81 54-38 4-44 0-112-65M728 915c53-25 70-42 30-30-29 9-19 0 55-49 41-28 55-42 47-51-12-14 6-35 31-35 17 0 39-46 39-81 0-10 9-33 20-51 22-36 28-132 9-158-8-12-10-9-6 12 2 15 0 33-4 40q-9 13.5-9-12c0-26-32-103-52-127-8-10-14-10-24-2s-15 2-23-29c-6-21-20-47-31-57-12-11-18-25-15-36 4-12-5-26-31-46-21-15-50-40-66-54-34-33-78-49-132-49-46 0-49-4 37 43 16 8 28 17 28 21-4 39 1 44 52 56 87 21 98 43 46 99-29 32-30 38-24 86 6 50 5 53-22 63-15 7-41 11-58 9-24-2-30 2-30 18 0 11 9 24 21 29 21 9 20 10-12 43-40 40-51 41-66 8-10-21-8-29 10-48 12-13 22-28 22-34 0-15-30-25-44-14-6 5-38 19-70 31-56 21-60 22-93 6-18-9-42-16-52-16-20 0-37-42-25-61 3-5 0-16-6-24-13-16-8-50 17-102 11-24 12-36 3-52-9-19-7-23 16-32 15-5 33-8 41-5 18 7 17 32-2 40-19 7-20 26-1 26 8 0 22-14 30-32 20-39 20-48 0-48-10 0-14-7-12-23 2-17 10-22 33-23 33 0 55-10 55-23 0-24-124 25-160 63-66 69-99 116-109 152-6 22-25 61-42 87-34 51-34 74 1 152 27 58 33 85 21 85-15 0-14 26 2 42 6 8 19 27 27 43 8 15 31 37 50 47 19 11 43 29 53 40 17 20 70 31 140 28 25 0 27 1 15 14-8 8-26 16-39 18s8 8 46 12c39 4 75 9 80 11 38 13 135 3 183-20M80 516c0-3-5-8-12-12s-8-3-4 4c7 12 16 16 16 8m253-126c-7-8-22 24-16 34 4 5 10 1 13-10 4-10 6-21 3-24m637 17c0-7-12-24-27-38-16-14-34-34-41-44-12-19-12-19-6 3 14 56 74 119 74 79m-621-80c-9-21-15-24-25-16-11 9-10 15 4 34 22 30 37 16 21-18m-98-124c13-16 12-17-3-4-10 7-18 15-18 17 0 8 8 3 21-13"/><path d="M558 873c7-3 16-2 19 1 4 3-2 6-13 5-11 0-14-3-6-6m332-222c0-7 11-26 25-43s25-23 25-15c0 7-11 27-25 43s-25 23-25 15M643 153c4-3 10-3 14 0 3 4 0 7-7 7s-10-3-7-7m-55-40c7-3 16-2 19 1 4 3-2 6-13 5-11 0-14-3-6-6"/></g><g fill="#b76f4a"><path d="M1367 1532c-40-37-85-77-102-87-16-10-58-42-91-71-34-29-72-55-85-59s-37-17-53-28c-45-32-288-147-310-147-12 0-30-7-40-15-11-8-31-15-44-15s-57-11-98-25-91-25-112-25c-23 0-59-13-97-33-49-28-66-45-101-102-23-37-50-72-60-78-39-21-98-72-124-108l-27-37 3-182c3-208 13-243 84-300 22-18 49-49 60-69C208 76 294 30 407 24c41-2 91-8 111-13s70-8 110-6c90 4 118 21 247 149 50 48 106 99 126 112 20 12 52 45 70 71s48 70 66 97c18 26 33 56 33 66 0 9 13 31 30 48 17 18 30 42 30 55 0 21 14 47 86 157 12 19 26 49 30 65 4 17 15 41 26 54 10 13 18 29 18 35s15 43 33 81c18 39 39 90 46 115s19 56 26 70 16 41 20 60 11 40 16 45c4 6 10 22 12 35 3 14 14 41 25 60 16 28 19 47 15 93-3 31-9 57-14 57s-9 6-9 13c0 24-39 51-81 54-38 4-44 0-112-65M728 915c54-25 69-41 30-30-21 5-22 5-4-7 99-67 135-100 155-140 11-24 21-54 21-66s9-36 20-54c22-36 28-132 9-158-8-12-10-9-6 12 2 15 0 33-4 40q-9 13.5-9-12c0-26-32-103-52-127-8-10-14-10-24-2s-15 2-23-29c-6-21-20-47-31-57-12-11-18-25-15-36 4-12-5-26-31-46-21-15-50-40-66-55-35-33-117-61-146-51-20 8-17 11 30 35 38 20 48 29 36 33-9 4-29 0-45-8-46-23-98-28-165-16s-62 8-167 129c-21 25-44 63-50 86-6 22-25 61-42 87-34 51-34 74 1 152 27 58 33 85 21 85-15 0-14 26 2 42 6 8 19 27 27 43 8 15 31 37 50 47 19 11 43 29 53 40 17 20 70 31 140 28 25 0 27 1 15 14-8 8-26 16-39 18s8 8 46 12c39 4 75 9 80 11 38 13 135 3 183-20M80 516c0-3-5-8-12-12s-8-3-4 4c7 12 16 16 16 8m906-80c-12-25-33-55-46-68-14-14-31-33-38-44-12-18-12-17-6 5 7 27 37 72 79 119 16 17 30 32 31 32s-8-20-20-44M125 260c3-5 4-10 1-10s-8 5-11 10c-3 6-4 10-1 10s8-4 11-10m135-65c13-14 21-25 18-25-2 0-15 11-28 25s-21 25-18 25c2 0 15-11 28-25M607 23c-4-3-10-3-14 0-3 4 0 7 7 7s10-3 7-7"/><path d="M558 873c7-3 16-2 19 1 4 3-2 6-13 5-11 0-14-3-6-6m332-222c0-7 11-26 25-43s25-23 25-15c0 7-11 27-25 43s-25 23-25 15M643 153c4-3 10-3 14 0 3 4 0 7-7 7s-10-3-7-7"/></g><g fill="#d46a34"><path d="M1367 1532c-40-37-85-77-102-87-16-10-58-42-91-71-34-29-72-55-85-59s-37-17-53-28c-45-32-288-147-310-147-12 0-30-7-40-15-11-8-31-15-44-15s-57-11-98-25-91-25-112-25c-23 0-59-13-97-33-49-28-66-45-101-102-23-37-50-72-60-78-39-21-98-72-124-108l-27-37 3-182c3-208 13-243 84-300 22-18 49-49 60-69C208 76 294 30 407 24c41-2 91-8 111-13s70-8 110-6c90 4 118 21 247 149 50 48 106 99 126 112 20 12 52 45 70 71s48 70 66 97c18 26 33 56 33 66 0 9 13 31 30 48 17 18 30 42 30 55 0 21 14 47 86 157 12 19 26 49 30 65 4 17 15 41 26 54 10 13 18 29 18 35s15 43 33 81c18 39 39 90 46 115s19 56 26 70 16 41 20 60 11 40 16 45c4 6 10 22 12 35 3 14 14 41 25 60 16 28 19 47 15 93-3 31-9 57-14 57s-9 6-9 13c0 24-39 51-81 54-38 4-44 0-112-65M754 906c30-18 44-31 37-36-8-4 7-21 42-48 55-41 97-106 97-150 0-12 9-36 20-54 22-36 28-132 9-158-8-12-10-9-6 12 2 15 0 33-4 40q-9 13.5-9-12c0-26-32-103-52-127-8-10-14-10-24-2s-15 2-23-29c-6-21-20-47-31-57-12-11-18-25-15-36 4-12-5-26-31-46-21-15-50-40-66-55-35-33-117-61-146-51-20 8-17 11 30 35 38 20 48 29 36 33-9 4-29 0-45-8-46-23-98-28-165-16s-62 8-167 129c-22 25-43 59-47 75-9 40-32 84-60 117l-22 27 20 58c11 32 24 63 28 68 15 20 20 63 8 67-7 3-9 14-4 31 4 17 11 25 18 21 6-4 8-3 4 4-7 11 40 72 56 72 17 0 69 41 63 50-9 15 11 20 89 21 66 1 73 3 61 16-11 10-25 12-48 8-25-6-30-5-20 5 6 7 45 15 85 17 40 3 75 7 78 10 3 2 39 3 80 1 61-2 84-8 124-32M127 653c-3-10-5-2-5 17s2 27 5 18c2-10 2-26 0-35M80 516c0-3-5-8-12-12s-8-3-4 4c7 12 16 16 16 8m906-80c-12-25-33-55-46-68-14-14-31-33-38-44-12-18-12-17-6 5 7 27 37 72 79 119 16 17 30 32 31 32s-8-20-20-44M125 260c3-5 4-10 1-10s-8 5-11 10c-3 6-4 10-1 10s8-4 11-10m135-65c13-14 21-25 18-25-2 0-15 11-28 25s-21 25-18 25c2 0 15-11 28-25M607 23c-4-3-10-3-14 0-3 4 0 7 7 7s10-3 7-7"/><path d="M890 651c0-7 11-26 25-43s25-23 25-15c0 7-11 27-25 43s-25 23-25 15M643 153c4-3 10-3 14 0 3 4 0 7-7 7s-10-3-7-7"/></g><g fill="#f46f32"><path d="M1367 1532c-40-37-85-77-102-87-16-10-58-42-91-71-34-29-72-55-85-59s-37-17-53-28c-45-32-288-147-310-147-12 0-30-7-40-15-11-8-31-15-44-15s-57-11-98-25-91-25-112-25c-23 0-59-13-97-33-49-28-66-45-101-102-23-37-50-72-60-78-39-21-98-72-124-108l-27-37 3-182c3-208 13-243 84-300 22-18 49-49 60-69C208 76 294 30 407 24c41-2 91-8 111-13s70-8 110-6c90 4 118 21 247 149 50 48 106 99 126 112 20 12 52 45 70 71s48 70 66 97c18 26 33 56 33 66 0 9 13 31 30 48 17 18 30 42 30 55 0 21 14 47 86 157 12 19 26 49 30 65 4 17 15 41 26 54 10 13 18 29 18 35s15 43 33 81c18 39 39 90 46 115s19 56 26 70 16 41 20 60 11 40 16 45c4 6 10 22 12 35 3 14 14 41 25 60 16 28 19 47 15 93-3 31-9 57-14 57s-9 6-9 13c0 24-39 51-81 54-38 4-44 0-112-65M533 943c-5-13-3-15 13-8 25 12 124 8 160-5 45-17 144-84 141-95-2-5 16-33 40-63 24-29 43-63 43-76s11-48 25-78c28-59 31-99 10-143-11-24-14-26-14-10-1 12-15-5-38-48-27-51-39-65-48-57-10 8-15 4-20-18-3-16-17-40-31-53-15-14-22-29-19-40 4-12-6-26-31-46-21-15-50-40-66-55-35-33-117-61-146-51-20 8-17 11 30 35 38 20 48 29 36 33-9 4-29 0-45-8-46-23-98-28-165-16s-64 10-166 129c-22 25-47 68-56 96s-25 60-35 71c-41 43-41 53-5 147 39 102 38 97 19 90-9-4-15 0-15 9 0 22 62 110 85 122 36 18 61 40 68 58 5 13 18 17 54 18 48 0 104 16 73 19-8 1-24 2-35 1-20-2-20-1-1 14 11 8 34 15 52 15 17 0 37 7 44 15 18 21 51 20 43-2M127 653c-3-10-5-2-5 17s2 27 5 18c2-10 2-26 0-35M80 516c0-3-5-8-12-12s-8-3-4 4c7 12 16 16 16 8m902-88c-14-29-34-62-46-74-12-11-26-29-32-40-20-34-27-6-8 30 15 28 102 136 110 136 0 0-10-24-24-52M125 260c3-5 4-10 1-10s-8 5-11 10c-3 6-4 10-1 10s8-4 11-10m135-65c13-14 21-25 18-25-2 0-15 11-28 25s-21 25-18 25c2 0 15-11 28-25M607 23c-4-3-10-3-14 0-3 4 0 7 7 7s10-3 7-7"/><path d="M800 850c14-11 30-20 35-20 6 0-1 9-15 20s-29 20-35 20c-5 0 1-9 15-20M643 153c4-3 10-3 14 0 3 4 0 7-7 7s-10-3-7-7"/></g><path fill="#da774e" d="M1367 1532c-40-37-85-77-102-87-16-10-58-42-91-71-34-29-72-55-85-59s-37-17-53-28c-45-32-288-147-310-147-12 0-30-7-40-15-11-8-31-15-44-15s-57-11-98-25-91-25-112-25c-23 0-59-13-97-33-49-28-66-45-101-102-23-37-50-72-60-78-39-21-98-72-124-108l-27-37 3-182c3-208 13-243 84-300 22-18 49-49 60-69C208 76 294 30 407 24c41-2 91-8 111-13s70-8 110-6c90 4 118 21 247 149 50 48 106 99 126 112 20 12 52 45 70 71s48 70 66 97c18 26 33 56 33 66 0 9 13 31 30 48 17 18 30 42 30 55 0 21 14 47 86 157 12 19 26 49 30 65 4 17 15 41 26 54 10 13 18 29 18 35s15 43 33 81c18 39 39 90 46 115s19 56 26 70 16 41 20 60 11 40 16 45c4 6 10 22 12 35 3 14 14 41 25 60 16 28 19 47 15 93-3 31-9 57-14 57s-9 6-9 13c0 24-39 51-81 54-38 4-44 0-112-65M630 945c80-14 95-21 198-86 12-7 22-18 22-22 0-5-14 1-31 13-16 12-32 20-35 18-5-6 106-82 120-83 5 0 10-11 12-25 5-47 21-105 44-154 18-39 21-59 16-100-5-44-4-49 8-33 19 25 27 21 20-10-8-31-36-76-68-109-12-11-26-29-32-40-19-32-27-7-9 28 10 18 23 44 31 58 7 14 15 39 18 55 6 29 6 29-10-5-33-72-55-101-69-90-10 9-15 4-20-19-3-17-15-42-26-56-17-21-18-25-5-25 9 0 16-6 16-14 0-18-17-30-22-17-1 6-32-17-68-51-81-76-164-107-208-79-10 6-7 11 15 19 34 12 70 38 62 46-3 3-24-4-46-15-41-20-77-23-177-17-41 3-52 8-65 29-24 40-72 101-97 124-12 11-29 45-38 75-8 31-24 64-34 75-38 41-40 54-21 117 9 33 22 65 27 71 5 7 13 22 16 34 6 18 4 22-8 17-10-4-16-1-16 9 0 22 62 110 85 122 36 18 61 40 68 58 5 13 18 17 54 18 48 0 104 16 73 19-8 1-24 2-35 1-20-2-20-1-1 14 11 8 34 15 52 15 17 0 37 7 44 15 15 19 33 19 140 0M127 653c-3-10-5-2-5 17s2 27 5 18c2-10 2-26 0-35M76 536c9-18 7-27-7-45l-18-22-6 35c-11 54 11 76 31 32m64-289c0-6-9-2-20 8s-17 22-13 28c6 10 33-19 33-36m141-75c-13-4-71 45-71 61 0 5 19-6 41-24 24-19 37-35 30-37m554 28c-3-5-11-10-16-10-6 0-7 5-4 10 3 6 11 10 16 10 6 0 7-4 4-10m-75-34c0-2-8-10-17-17-16-13-17-12-4 4s21 21 21 13M495 80c8-13-5-13-25 0-13 8-13 10 2 10 9 0 20-4 23-10m71-39c5 1 16 0 24-4 8-3 22-8 30-10 8-3-1-6-20-6-33 0-70 17-70 34 0 4 6 2 14-4s18-11 22-10"/><g fill="#b78d65"><path d="M1367 1532c-40-37-85-77-102-87-16-10-58-42-91-71-34-29-72-55-85-59s-37-17-53-28c-45-32-288-147-310-147-12 0-30-7-40-15-11-8-31-15-44-15s-57-11-98-25-91-25-112-25c-23 0-59-13-97-33-49-28-66-45-101-102-23-37-50-72-60-78-39-21-98-72-124-108l-27-37 3-182c3-208 13-243 84-300 22-18 49-49 60-69C208 76 294 30 407 24c41-2 91-8 111-13s70-8 110-6c90 4 118 21 247 149 50 48 106 99 126 112 20 12 52 45 70 71s48 70 66 97c18 26 33 56 33 66 0 9 13 31 30 48 17 18 30 42 30 55 0 21 14 47 86 157 12 19 26 49 30 65 4 17 15 41 26 54 10 13 18 29 18 35s15 43 33 81c18 39 39 90 46 115s19 56 26 70 16 41 20 60 11 40 16 45c4 6 10 22 12 35 3 14 14 41 25 60 16 28 19 47 15 93-3 31-9 57-14 57s-9 6-9 13c0 24-39 51-81 54-38 4-44 0-112-65M670 939c62-13 179-86 200-124 9-16 23-30 31-30s14-7 14-15c1-21 24-96 47-154 14-36 19-65 16-102-3-29-1-51 4-48 4 3 8 12 8 20s5 12 10 9c12-8 3-51-19-85-21-34-103-131-107-127-2 2 1 19 6 38 9 31 8 32-5 15-15-20-15-20-15 0-1 15-4 12-17-11-8-16-22-38-31-47-14-16-13-18 1-18 10 0 17-6 17-14 0-18-17-30-22-17-1 6-32-17-68-51-81-76-164-107-208-79-10 6-7 11 15 19 34 12 70 38 62 46-3 3-24-4-46-15-41-20-77-23-177-17-41 3-52 8-65 29-24 39-72 101-97 124-12 11-30 45-39 75-10 30-21 59-26 64-12 14-12-11 1-34 9-18 8-18-16-5-31 16-44 33-44 58 0 11 4 15 11 11 8-5 10 2 7 21-6 30-1 51 31 135q21 55.5 6 36c-8-11-15-23-15-28 0-4-7-8-16-8-12 0-15 6-10 23 3 12 6 33 7 47 0 23 1 23 8 5s11-15 30 22c26 52 78 113 97 113 7 0 23 14 36 30 17 24 29 30 59 30 21 0 46 3 56 7 16 6 15 8-7 14l-25 6 30 13c17 6 44 18 60 26 32 15 117 12 205-7M76 536c9-18 7-27-7-45l-18-22-6 35c-11 54 11 76 31 32m64-289c0-6-9-2-20 8s-17 22-13 28c6 10 33-19 33-36m754-2c-4-8-10-15-15-15-4 0-6 7-3 15 4 8 10 15 15 15 4 0 6-7 3-15m-613-73c-13-4-71 45-71 61 0 5 19-6 41-24 24-19 37-35 30-37m554 28c-3-5-11-10-16-10-6 0-7 5-4 10 3 6 11 10 16 10 6 0 7-4 4-10m-75-34c0-2-8-10-17-17-16-13-17-12-4 4s21 21 21 13M495 80c8-13-5-13-25 0-13 8-13 10 2 10 9 0 20-4 23-10m71-39c5 1 16 0 24-4 8-3 22-8 30-10 8-3-1-6-20-6-33 0-70 17-70 34 0 4 6 2 14-4s18-11 22-10"/><path d="M915 412c-29-56-30-58-7-39 19 17 38 64 29 73-2 2-12-13-22-34"/></g><g fill="#f6784c"><path d="M1367 1532c-40-37-85-77-102-87-16-10-58-42-91-71-34-29-72-55-85-59s-37-17-53-28c-45-32-288-147-310-147-12 0-30-7-40-15-11-8-31-15-44-15s-57-11-98-25-91-25-112-25c-23 0-59-13-97-33-49-28-66-45-101-102-23-37-50-72-60-78-39-21-98-72-124-108l-27-37 3-182c3-208 13-243 84-300 22-18 49-49 60-69C208 76 294 30 407 24c41-2 91-8 111-13s70-8 110-6c90 4 118 21 247 149 50 48 106 99 126 112 20 12 52 45 70 71s48 70 66 97c18 26 33 56 33 66 0 9 13 31 30 48 17 18 30 42 30 55 0 21 14 47 86 157 12 19 26 49 30 65 4 17 15 41 26 54 10 13 18 29 18 35s15 43 33 81c18 39 39 90 46 115s19 56 26 70 16 41 20 60 11 40 16 45c4 6 10 22 12 35 3 14 14 41 25 60 16 28 19 47 15 93-3 31-9 57-14 57s-9 6-9 13c0 24-39 51-81 54-38 4-44 0-112-65M670 939c62-13 179-86 200-124 9-16 23-30 31-30s14-7 14-15c1-21 24-96 47-154 14-36 19-65 16-102-3-29-1-51 4-48 4 3 8 12 8 20s5 12 10 9c12-8 3-51-19-85-21-34-103-131-107-127-2 2 1 19 6 38 9 31 8 32-5 15-15-20-15-20-15 0-1 15-4 12-17-11-8-16-22-38-31-47-14-16-13-18 1-18 10 0 17-6 17-14 0-18-17-30-22-17-1 6-32-17-68-51-81-76-164-107-208-79-10 6-7 11 15 19 34 12 70 38 62 46-3 3-24-4-46-15-41-20-77-23-177-17-41 3-52 8-65 29-24 39-72 101-97 124-12 11-30 45-39 75-10 30-21 59-26 64-12 14-12-11 1-34 9-18 8-18-16-5-31 16-44 33-44 58 0 11 4 15 11 11 8-5 10 2 7 21-6 30-1 51 31 135q21 55.5 6 36c-8-11-15-23-15-28 0-4-7-8-15-8-12 0-13 9-9 48 7 52 24 81 24 42 0-21 4-18 26 20 30 53 73 100 91 100 7 0 22 14 35 30 18 25 29 30 62 30 23 0 48 5 56 11 12 8 9 10-12 6-38-6-35 8 5 23 17 6 46 18 62 26 32 15 116 12 205-7M76 536c9-18 7-27-7-45l-18-22-6 35c-11 54 11 76 31 32m64-289c0-6-9-2-20 8s-17 22-13 28c6 10 33-19 33-36m754-2c-4-8-10-15-15-15-4 0-6 7-3 15 4 8 10 15 15 15 4 0 6-7 3-15m-613-73c-13-4-71 45-71 61 0 5 19-6 41-24 24-19 37-35 30-37m554 28c-3-5-11-10-16-10-6 0-7 5-4 10 3 6 11 10 16 10 6 0 7-4 4-10m-75-34c0-2-8-10-17-17-16-13-17-12-4 4s21 21 21 13M495 80c8-13-5-13-25 0-13 8-13 10 2 10 9 0 20-4 23-10m71-39c5 1 16 0 24-4 8-3 22-8 30-10 8-3-1-6-20-6-33 0-70 17-70 34 0 4 6 2 14-4s18-11 22-10"/><path d="M915 412c-29-56-30-58-7-39 19 17 38 64 29 73-2 2-12-13-22-34"/></g><g fill="#ff9927"><path d="M1367 1532c-40-37-85-77-102-87-16-10-58-42-91-71-34-29-72-55-85-59s-37-17-53-28c-45-32-288-147-310-147-12 0-30-7-40-15-11-8-31-15-44-15s-57-11-98-25-91-25-112-25c-23 0-59-13-97-33-49-28-66-45-101-102-23-37-50-72-60-78-39-21-98-72-124-108l-27-37 3-182c3-208 13-243 84-300 22-18 49-49 60-69C208 76 294 30 407 24c41-2 91-8 111-13s70-8 110-6c90 4 118 21 247 149 50 48 106 99 126 112 20 12 52 45 70 71s48 70 66 97c18 26 33 56 33 66 0 9 13 31 30 48 17 18 30 42 30 55 0 21 14 47 86 157 12 19 26 49 30 65 4 17 15 41 26 54 10 13 18 29 18 35s15 43 33 81c18 39 39 90 46 115s19 56 26 70 16 41 20 60 11 40 16 45c4 6 10 22 12 35 3 14 14 41 25 60 16 28 19 47 15 93-3 31-9 57-14 57s-9 6-9 13c0 24-39 51-81 54-38 4-44 0-112-65M642 945c102-22 220-92 239-142 5-14 12-23 16-19 8 8 34-14 28-24s17-101 39-152c9-21 16-59 17-85 0-26 3-42 6-35 2 6 9 10 14 6 11-7 1-51-20-84-21-34-103-131-107-127-2 2 1 19 6 38 9 31 8 32-5 15-15-20-15-20-15 0 0 12-9 4-25-25-29-51-30-52-10-45 9 4 15 0 15-9s-7-22-15-31c-8-8-15-18-15-22 0-5 5-3 12 4 17 17 29 15 22-3-4-8-16-15-28-15-13 0-33-11-46-25s-31-25-39-25c-13 1-12 4 4 15 40 28 65 50 65 58 0 13-34-10-79-53-58-57-142-84-196-64-11 5-2 13 35 30 27 13 50 28 50 34 0 13-13 13-26 0-19-19-128-47-149-39-11 4-36 8-55 9-49 2-127 47-169 100-36 44-36 44-6 23 17-12 43-35 59-52 29-30 46-39 46-23 0 4-25 33-54 65-40 43-59 72-71 112-8 30-20 57-25 60-13 8-13-1 0-25 15-28-21-20-42 10-18 26-25 65-10 56 5-3 10 26 10 65 1 39 4 74 7 80 4 5 2 9-4 9-7 0-8 17-5 48 7 52 24 81 24 42 0-21 4-18 26 20 30 53 73 100 91 100 7 0 22 14 35 30 18 25 29 30 62 30 23 0 48 5 56 11 12 8 9 10-12 6-38-6-35 8 5 23 17 6 46 18 62 25 40 18 89 18 177 0M76 541c4-11 7-11 21 0 17 13 17 12 2-11-9-14-22-35-29-47-14-21-14-21-26 13-9 25-9 45-1 76l11 42 9-29c5-17 11-36 13-44m60-273c3-11 3-22 0-25-9-10-36 18-36 38 0 24 27 14 36-13m758-23c-4-8-10-15-15-15-4 0-6 7-3 15 4 8 10 15 15 15 4 0 6-7 3-15m-703-12c13-16 12-17-3-4-10 7-18 15-18 17 0 8 8 3 21-13m604-103c-3-5-11-10-16-10-6 0-7 5-4 10 3 6 11 10 16 10 6 0 7-4 4-10m-50-20c-3-5-14-10-23-9-14 0-13 2 3 9 27 11 27 11 20 0M514 75c26-14 51-23 56-20 4 3 13-2 20-10 7-9 21-13 31-10 9 3 20 1 24-5 8-13-87-14-101 0-5 5-34 23-64 39-37 21-48 31-34 31 12 0 42-11 68-25m-249 5c3-5 4-10 1-10s-8 5-11 10c-3 6-4 10-1 10s8-4 11-10m32-17c-4-3-10-3-14 0-3 4 0 7 7 7s10-3 7-7"/><path d="M155 649c-4-6-5-12-2-15 2-3 7 2 10 11 7 17 1 20-8 4m775-209c0-7 3-10 7-7 3 4 3 10 0 14-4 3-7 0-7-7m-24-52-17-33 20 24c18 20 27 41 18 41-1 0-11-15-21-32"/></g><g fill="#fe9034"><path d="M1367 1532c-40-37-85-77-102-87-16-10-58-42-91-71-34-29-72-55-85-59s-37-17-53-28c-45-32-288-147-310-147-12 0-30-7-40-15-11-8-31-15-44-15s-57-11-98-25-91-25-112-25c-23 0-59-13-97-33-49-28-66-45-101-102-23-37-50-72-60-78-39-21-98-72-124-108l-27-37 3-182c3-208 13-243 84-300 22-18 49-49 60-69C208 76 294 30 407 24c41-2 91-8 111-13s70-8 110-6c90 4 118 21 247 149 50 48 106 99 126 112 20 12 52 45 70 71s48 70 66 97c18 26 33 56 33 66 0 9 13 31 30 48 17 18 30 42 30 55 0 21 14 47 86 157 12 19 26 49 30 65 4 17 15 41 26 54 10 13 18 29 18 35s15 43 33 81c18 39 39 90 46 115s19 56 26 70 16 41 20 60 11 40 16 45c4 6 10 22 12 35 3 14 14 41 25 60 16 28 19 47 15 93-3 31-9 57-14 57s-9 6-9 13c0 24-39 51-81 54-38 4-44 0-112-65m-652-481c-3-5-19-13-36-16-17-4-48-16-68-27l-36-21 30 27c37 32 126 62 110 37m-73-106c102-22 220-92 239-142 5-14 12-23 16-19 8 8 34-14 28-24s17-101 39-152c9-21 16-59 16-85 0-35 3-44 10-33 5 8 10 11 10 5 0-5 7-1 15 9 15 19 15 19 15-1 0-12-6-28-12-35-7-7-22-29-32-48-21-38-107-143-112-137-2 2 1 19 6 38 9 31 8 32-5 15-15-20-15-20-15 0 0 12-9 4-25-25-29-51-30-52-10-45 9 4 15 0 15-9s-7-22-15-31c-8-8-15-18-15-22 0-5 5-3 12 4 17 17 29 15 22-3-4-8-16-15-28-15-13 0-33-11-46-25s-31-25-39-25c-13 1-12 4 4 15 40 28 65 50 65 58 0 13-34-10-79-53-58-57-142-84-196-64-11 5-2 13 35 30 27 13 50 28 50 34 0 13-13 13-26 0-19-19-128-47-149-39-11 4-36 8-55 9-49 2-127 47-169 100-36 44-36 44-6 23 17-12 43-35 59-52 29-30 46-39 46-23 0 4-25 33-54 65-40 43-59 72-71 112-8 30-20 57-25 60-13 8-13-1 0-25 15-28-21-20-42 10-18 26-25 65-10 56 5-3 10 26 10 65 1 39 4 74 7 80 4 5 2 9-4 9-7 0-8 17-5 48 7 52 24 81 24 42 0-21 4-18 26 20 30 53 73 100 91 100 7 0 22 14 35 30 18 25 29 30 62 30 23 0 48 5 56 11 12 8 9 10-12 6-38-6-35 8 5 23 17 6 46 18 62 25 40 18 89 18 177 0M76 541c4-11 7-11 21 0 17 13 17 12 2-11-9-14-22-35-29-47-14-21-14-21-26 13-9 25-9 45-1 76l11 42 9-29c5-17 11-36 13-44m1014 29c-6-12-14-19-17-16-4 3-13 0-22-7-14-11-15-10-1 8 31 43 45 56 48 46 2-5-2-20-8-31M136 268c3-11 3-22 0-25-9-10-36 18-36 38 0 24 27 14 36-13m758-23c-4-8-10-15-15-15-4 0-6 7-3 15 4 8 10 15 15 15 4 0 6-7 3-15m-703-12c13-16 12-17-3-4-10 7-18 15-18 17 0 8 8 3 21-13m604-103c-3-5-11-10-16-10-6 0-7 5-4 10 3 6 11 10 16 10 6 0 7-4 4-10m-50-20c-3-5-14-10-23-9-14 0-13 2 3 9 27 11 27 11 20 0M514 75c26-14 51-23 56-20 4 3 13-2 20-10 7-9 21-13 31-10 9 3 20 1 24-5 8-13-87-14-101 0-5 5-34 23-64 39-37 21-48 31-34 31 12 0 42-11 68-25m-249 5c3-5 4-10 1-10s-8 5-11 10c-3 6-4 10-1 10s8-4 11-10m32-17c-4-3-10-3-14 0-3 4 0 7 7 7s10-3 7-7"/><path d="M155 649c-4-6-5-12-2-15 2-3 7 2 10 11 7 17 1 20-8 4m775-209c0-7 3-10 7-7 3 4 3 10 0 14-4 3-7 0-7-7m-24-52-17-33 20 24c18 20 27 41 18 41-1 0-11-15-21-32"/></g><g fill="#d69064"><path d="M1367 1532c-40-37-85-77-102-87-16-10-58-42-91-71-34-29-72-55-85-59s-37-17-53-28c-45-32-288-147-310-147-12 0-30-7-40-15-11-8-31-15-44-15s-57-11-98-25-91-25-112-25c-23 0-59-13-97-33-49-28-66-45-101-102-23-37-50-72-60-78-39-21-98-72-124-108l-27-37 3-182c3-208 13-243 84-300 22-18 49-49 60-69C208 76 294 30 407 24c41-2 91-8 111-13s70-8 110-6c90 4 118 21 247 149 50 48 106 99 126 112 20 12 52 45 70 71s48 70 66 97c18 26 33 56 33 66 0 9 13 31 30 48 17 18 30 42 30 55 0 21 14 47 86 157 12 19 26 49 30 65 4 17 15 41 26 54 10 13 18 29 18 35s15 43 33 81c18 39 39 90 46 115s19 56 26 70 16 41 20 60 11 40 16 45c4 6 10 22 12 35 3 14 14 41 25 60 16 28 19 47 15 93-3 31-9 57-14 57s-9 6-9 13c0 24-39 51-81 54-38 4-44 0-112-65m-710-438c-3-3-12-4-19-1-8 3-5 6 6 6 11 1 17-2 13-5m77-29c-4-9-109-66-146-79-10-3-18-10-18-15 0-11 5-12 95-31 52-12 136-55 185-97 21-17 36-23 48-17 16 7 62 13 62 7 0-1-9-20-20-41-19-37-20-43-6-93 8-30 21-71 30-91 9-21 16-58 16-84v-47l23 26c50 57 93 112 110 141 10 17 15 22 11 11-3-11-9-31-12-45s-17-41-32-60c-14-19-46-64-70-100-46-69-131-173-136-167-2 2 1 19 6 38 9 31 8 32-5 15-15-20-15-20-15 0 0 12-9 4-25-25-29-51-30-52-10-45 9 4 15 0 15-9s-7-22-15-31c-8-8-15-18-15-22 0-5 5-3 12 4 17 17 29 15 22-3-4-8-16-15-28-15-13 0-33-11-46-25s-31-25-39-25c-13 1-12 4 4 15 40 28 65 50 65 58 0 13-34-10-79-53-58-57-142-84-196-64-11 5-2 13 35 30 27 13 50 28 50 34 0 7-7 7-22-1-44-24-133-46-153-38-11 4-36 8-55 9-49 2-127 47-169 100-36 44-36 44-6 23 17-12 43-35 59-52 29-30 46-39 46-23 0 4-25 33-54 65-40 43-59 72-71 112-8 30-20 57-25 60-13 8-13-1 0-25 15-28-21-20-42 10-18 26-25 65-10 56 5-3 10 26 10 65 1 39 4 74 7 80 4 5 2 9-4 9-7 0-8 17-5 48 7 52 24 81 24 42 0-21 4-18 26 20 30 53 73 100 91 100 7 0 22 14 35 30 18 25 29 30 62 30 23 0 48 5 56 11 12 8 9 10-12 6-38-6-35 8 5 23 17 6 47 18 65 26s42 14 54 14c11 0 37 16 56 36s50 43 69 50c18 8 33 19 33 24 0 6 13 9 29 8s27-7 25-13M76 541c4-11 7-11 21 0 17 13 17 12 2-11-9-14-22-35-29-47-14-21-14-21-26 13-9 25-9 45-1 76l11 42 9-29c5-17 11-36 13-44m60-273c3-11 3-22 0-25-9-10-36 18-36 38 0 24 27 14 36-13m758-23c-4-8-10-15-15-15-4 0-6 7-3 15 4 8 10 15 15 15 4 0 6-7 3-15m-703-12c13-16 12-17-3-4-10 7-18 15-18 17 0 8 8 3 21-13m604-103c-3-5-11-10-16-10-6 0-7 5-4 10 3 6 11 10 16 10 6 0 7-4 4-10m-45-14c0-8-81-59-86-54-7 8 48 46 84 57 1 1 2-1 2-3M514 75c26-14 51-23 56-20 4 3 13-2 20-10 7-9 21-13 31-10 9 3 20 1 24-5 8-13-87-14-101 0-5 5-34 23-64 39-37 21-48 31-34 31 12 0 42-11 68-25m-249 5c3-5 4-10 1-10s-8 5-11 10c-3 6-4 10-1 10s8-4 11-10m32-17c-4-3-10-3-14 0-3 4 0 7 7 7s10-3 7-7"/><path d="M703 1063c4-3 10-3 14 0 3 4 0 7-7 7s-10-3-7-7M155 649c-4-6-5-12-2-15 2-3 7 2 10 11 7 17 1 20-8 4m775-209c0-7 3-10 7-7 3 4 3 10 0 14-4 3-7 0-7-7m-24-52-17-33 20 24c18 20 27 41 18 41-1 0-11-15-21-32"/></g><g fill="#f78f55"><path d="M1367 1532c-40-37-85-77-102-87-16-10-58-42-91-71-34-29-72-55-85-59s-37-17-53-28c-45-32-288-147-310-147-12 0-30-7-40-15-11-8-31-15-44-15s-57-11-98-25-91-25-112-25c-23 0-59-13-97-33-49-28-66-45-101-102-23-37-50-72-60-78-39-21-98-72-124-108l-27-37 3-182c3-208 13-243 84-300 22-18 49-49 60-69C208 76 294 30 407 24c41-2 91-8 111-13s70-8 110-6c90 4 118 21 247 149 50 48 106 99 126 112 20 12 52 45 70 71s48 70 66 97c18 26 33 56 33 66 0 9 13 31 30 48 17 18 30 42 30 55 0 21 14 47 86 157 12 19 26 49 30 65 4 17 15 41 26 54 10 13 18 29 18 35s15 43 33 81c18 39 39 90 46 115s19 56 26 70 16 41 20 60 11 40 16 45c4 6 10 22 12 35 3 14 14 41 25 60 16 28 19 47 15 93-3 31-9 57-14 57s-9 6-9 13c0 24-39 51-81 54-38 4-44 0-112-65m-710-438c-3-3-12-4-19-1-8 3-5 6 6 6 11 1 17-2 13-5m77-29c-4-9-109-66-146-79-10-3-18-10-18-15 0-11 17-17 80-26 57-9 155-58 197-97 23-23 36-29 50-23 17 8 63 14 63 8 0-1-9-19-20-40-16-33-18-44-9-83 6-25 20-65 32-90 11-25 20-66 21-92v-47l20 24c51 57 92 111 109 139 10 17 15 22 11 11-3-11-9-31-12-45s-17-41-32-60c-14-19-48-66-73-105-52-78-142-180-133-152 3 10 0 25-8 33-12 12-17 9-35-22-25-42-26-45-6-38 9 4 15 0 15-9s-7-22-15-31c-8-8-15-18-15-22 0-5 5-3 12 4 17 17 29 15 22-3-4-8-16-15-28-15-13 0-33-11-46-25s-31-25-39-25c-13 1-12 4 4 15 40 28 65 50 65 58 0 13-34-10-79-53-58-57-142-84-196-64-11 5-2 13 35 30 27 13 50 28 50 34 0 7-7 7-22-1-44-24-133-46-153-38-11 4-36 8-55 9-49 2-127 47-169 100-36 44-36 44-6 23 17-12 43-35 59-52 29-30 46-39 46-23 0 4-25 34-56 66-30 33-58 72-61 88-3 15-12 28-19 28-8 0-14 5-14 11 0 5 5 7 10 4 15-9 12 9-6 31-15 19-15 19-9-2 3-14 0-24-8-27-21-8-63 71-50 92 18 28 27 103 13 111-9 5-9 21-1 66 11 56 22 79 41 79 5 0 23 19 40 43s46 50 63 57c18 8 28 14 24 15-20 1 16 39 43 45 17 4 28 10 25 14-2 5 24 16 58 26s66 22 72 27c5 4 22 8 38 8 21 0 40 11 65 36 19 20 50 43 69 50 18 8 33 19 33 24 0 6 13 9 29 8s27-7 25-13m270-467c7-29 8-53 1-46-11 10-23 68-15 68 4 0 10-10 14-22M76 541c4-11 7-11 21 0 17 13 17 12 2-11-9-14-22-35-29-47-14-21-14-21-26 13-9 25-9 45-1 76l11 42 9-29c5-17 11-36 13-44m60-273c3-11 3-22 0-25-9-10-36 18-36 38 0 24 27 14 36-13m762-20c-2-6-10-14-16-16-7-2-10 2-6 12 7 18 28 22 22 4m-707-15c13-16 12-17-3-4-10 7-18 15-18 17 0 8 8 3 21-13m604-103c-3-5-11-10-16-10-6 0-7 5-4 10 3 6 11 10 16 10 6 0 7-4 4-10m-45-14c0-8-81-59-86-54-7 8 48 46 84 57 1 1 2-1 2-3M514 75c26-14 51-23 56-20 4 3 13-2 20-10 7-9 21-13 31-10 9 3 20 1 24-5 8-13-87-14-101 0-5 5-34 23-64 39-37 21-48 31-34 31 12 0 42-11 68-25m-249 5c3-5 4-10 1-10s-8 5-11 10c-3 6-4 10-1 10s8-4 11-10m32-17c-4-3-10-3-14 0-3 4 0 7 7 7s10-3 7-7"/><path d="M703 1063c4-3 10-3 14 0 3 4 0 7-7 7s-10-3-7-7M150 640c0-7 3-10 7-7 3 4 3 10 0 14-4 3-7 0-7-7m780-200c0-7 3-10 7-7 3 4 3 10 0 14-4 3-7 0-7-7m-24-52-17-33 20 24c18 20 27 41 18 41-1 0-11-15-21-32m-32-50c-4-7-3-8 4-4 12 7 16 16 8 16-3 0-8-5-12-12"/></g><g fill="#f9956d"><path d="M1367 1532c-40-37-85-77-102-87-16-10-58-42-91-71-34-29-72-55-85-59s-37-17-53-28c-45-32-288-147-310-147-12 0-30-7-40-15-11-8-31-15-44-15s-57-11-98-25-91-25-112-25c-23 0-59-13-97-33-49-28-66-45-101-102-23-37-50-72-60-78-39-21-98-72-124-108l-27-37 3-182c3-208 13-243 84-300 22-18 49-49 60-69C208 76 294 30 407 24c41-2 91-8 111-13s70-8 110-6c90 4 118 21 247 149 50 48 106 99 126 112 20 12 52 45 70 71s48 70 66 97c18 26 33 56 33 66 0 9 13 31 30 48 17 18 30 42 30 55 0 21 14 47 86 157 12 19 26 49 30 65 4 17 15 41 26 54 10 13 18 29 18 35s15 43 33 81c18 39 39 90 46 115s19 56 26 70 16 41 20 60 11 40 16 45c4 6 10 22 12 35 3 14 14 41 25 60 16 28 19 47 15 93-3 31-9 57-14 57s-9 6-9 13c0 24-39 51-81 54-38 4-44 0-112-65m-710-438c-3-3-12-4-19-1-8 3-5 6 6 6 11 1 17-2 13-5m77-29c-3-6-24-21-47-33-88-46-107-57-107-64 0-4 26-12 58-19 62-13 158-57 209-95 33-25 49-30 55-15 2 5 17 6 35 4l31-5-18-31c-11-17-16-35-13-40s1-12-4-16c-6-4-5-17 4-36l14-30-4 27c-2 15 0 25 5 22s7-22 3-43q-6-36 15-93c11-32 20-64 20-73 0-8 7-15 15-15s15 5 15 10c0 6 17 29 39 53 21 23 46 56 55 72 10 17 14 21 10 10-3-11-9-31-12-45-3-13-24-50-46-81-23-32-52-76-65-98s-50-68-82-103c-55-59-71-69-50-30 6 11 4 21-4 29-11 10-17 7-29-19-20-39-20-44-2-29 12 10 14 7 11-18-5-37 1-38 32-9 19 18 23 19 23 5 0-9-11-24-25-33s-25-21-25-27c0-10-30-36-42-37-4 0-4 8-1 17 5 12-3 9-28-10-50-38-161-77-217-77-62 0-86 15-39 24 35 6 94 45 70 46-6 0-14-4-17-9-4-5-29-15-56-22-28-7-50-16-50-21 0-9 82-53 94-50 5 2 17-5 27-14 19-17 21-16 52 13 33 31 61 48 131 77 39 16 39 16 21-4-10-11-22-17-27-14-8 5-90-54-114-82-19-23-87-20-122 4-17 13-47 29-66 37-20 9-36 22-36 30 0 10-10 15-31 15-35 0-115 37-178 83-32 24-45 40-45 59-2 25-1 26 16 11 25-22 34-10 14 19-9 12-16 30-16 40 0 9-9 22-20 28-16 9-20 8-20-7-1-10-15 9-31 41-25 47-29 63-21 80 6 12 13 34 17 51l7 30-23-29c-12-15-28-44-35-65l-13-36-1 33c0 18-4 41-9 51-6 10-5 35 2 66 6 28 12 42 15 32 7-33 30-69 37-58 3 6 8 37 11 68 5 62 23 108 41 108 6 0 26 19 43 43s46 50 63 57c18 8 28 14 24 15-20 1 16 39 43 45 17 4 28 10 25 14-2 5 24 16 58 27 34 10 73 24 87 31s31 13 39 13c7 0 21 8 30 18s25 22 36 26c16 6 17 9 5 16-12 8-11 10 5 10 11 0 34 9 50 20 31 21 86 24 79 5m271-487c5-31 5-32-6-8-6 14-15 33-20 42-15 29-10 44 6 21 8-12 18-37 20-55M72 408c-7-7-12-8-12-2 0 14 12 26 19 19 2-3-1-11-7-17m938-62c0-3-5-8-12-12s-8-3-4 4c7 12 16 16 16 8M67 303c-4-3-7 0-7 7s3 10 7 7c3-4 3-10 0-14m923 13c0-3-5-8-12-12s-8-3-4 4c7 12 16 16 16 8m-854-43c4-13 4-27 0-30-9-10-45 27-40 41 8 21 34 14 40-11M310 54c0-2-13 2-30 11-16 9-30 18-30 21 0 2 14-2 30-11 17-9 30-18 30-21m60 1c-7-8-20-15-29-15-11 1-8 5 9 15 32 18 35 18 20 0"/><path d="M703 1063c4-3 10-3 14 0 3 4 0 7-7 7s-10-3-7-7M235 250c-8-12 19-46 49-62 14-8 12-1-10 28-15 22-29 40-30 42s-5-2-9-8m517-66c-24-19-39-34-34-34s26 16 48 35c50 44 42 44-14-1"/></g><g fill="#ffad53"><path d="M1367 1532c-40-37-85-77-102-87-16-10-58-42-91-71-34-29-72-55-85-59s-37-17-53-28c-45-32-288-147-310-147-12 0-30-7-40-15-11-8-31-15-44-15s-57-11-98-25-91-25-112-25c-23 0-59-13-97-33-49-28-66-45-100-101-23-38-56-76-74-87s-31-23-28-26-15-30-39-60c-42-52-45-58-39-97 4-22 11-45 16-51 5-5 9-20 9-34 0-45 17-8 28 62 11 67 26 102 42 92 5-3 17 10 29 27 30 49 113 126 144 133 15 4 25 11 22 15s7 11 23 15c64 16 202 74 199 84-1 3 4 16 11 28 8 15 18 20 33 16 16-5 20-3 15 6-5 8-3 11 5 10 8-2 24 2 36 9 26 14 72 12 67-3-3-6-21-19-42-30-20-10-45-26-55-34-18-15-18-16 0-22 14-6 11-8-12-8-23-1-27-4-15-11 8-5 25-10 36-10 24 0 198-84 227-108 12-11 21-13 25-6 5 8 51 11 69 5 2-1-6-16-16-35-19-33-19-34 0-65 10-17 19-41 19-52s9-37 20-59 20-52 19-67c0-25-2-23-16 15-8 24-16 42-18 40-8-8 20-98 32-102 7-3 13-1 13 5 0 5 17 28 39 52 21 23 46 56 55 72 10 17 14 21 10 10-3-11-9-31-12-45-3-13-25-51-49-83-23-33-43-64-43-71 0-18-44-71-134-165-52-52-59-77-13-40 41 31 33 3-15-54-41-48-38-54 7-18 20 16 20 16 1-6-19-23-88-63-109-63-7 0-33-20-59-44-38-35-57-45-96-50-44-6-53-3-92 25-24 17-59 36-79 42-20 5-30 12-23 14 19 7 3 23-23 23-27 0-86 28-155 73-58 38-71 55-64 82 3 14-4 35-20 59-38 57-62 124-48 138 7 7 12 23 12 36 0 20-3 22-14 13-21-17-29-63-16-95 7-19 7-33 0-47-9-15-7-19 5-19 19 0 70-104 60-121-5-7-24 5-51 32-43 43-45 45-43 104 0 33-4 80-9 105-6 26-7 86-4 142l7 97 45 46c24 25 40 45 34 45-11 0-63-52-86-87-12-18-14-57-12-203 3-208 13-243 84-300 22-18 49-49 60-69C208 76 294 30 407 24c41-2 91-8 111-13s70-8 110-6c90 4 118 21 247 149 50 48 106 99 126 112 20 12 52 45 70 71s48 70 66 97c18 26 33 56 33 66 0 9 13 31 30 48 17 18 30 42 30 55 0 21 14 47 86 157 12 19 26 49 30 65 4 17 15 41 26 54 10 13 18 29 18 35s15 43 33 81c18 39 39 90 46 115s19 56 26 70 16 41 20 60 11 40 16 45c4 6 10 22 12 35 3 14 14 41 25 60 16 28 19 47 15 93-3 31-9 57-14 57s-9 6-9 13c0 24-39 51-81 54-38 4-44 0-112-65m-707-436c0-2-7-6-15-10-8-3-15-1-15 4 0 6 7 10 15 10s15-2 15-4m-43-13c-4-3-10-3-14 0-3 4 0 7 7 7s10-3 7-7M320 965c-43-44-58-51-47-21 5 13 72 64 87 65 2 1-16-19-40-44m745-545c-10-11-21-17-24-14s3 12 13 20c28 20 32 17 11-6m-45-63c-11-18-32-44-47-58l-27-24 27 35c15 19 33 45 39 58 6 12 15 22 19 22 5 0 0-15-11-33M227 168c-3-8-6-5-6 6-1 11 2 17 5 13 3-3 4-12 1-19m39-81c17-9 34-14 37-11s15 0 27-6c13-7 20-8 16-2-3 6-2 13 4 17 5 3 10 2 10-4s8-8 18-4c14 5 13 1-5-17-20-21-25-22-61-12-21 6-54 26-73 44-20 18-28 28-20 22 9-7 30-19 47-27m121 17c-3-3-12-4-19-1-8 3-5 6 6 6 11 1 17-2 13-5m353-48c0-2-8-10-17-17-16-13-17-12-4 4s21 21 21 13"/><path d="M703 1063c4-3 10-3 14 0 3 4 0 7-7 7s-10-3-7-7m-113-44c0-5 5-7 10-4 6 3 10 8 10 11 0 2-4 4-10 4-5 0-10-5-10-11m340-289c0-7 3-10 7-7 3 4 3 10 0 14-4 3-7 0-7-7M180 314c0-21 25-62 33-54 3 3-4 21-14 40-14 26-19 30-19 14m656-11c-6-14-5-15 5-6 7 7 10 15 7 18s-9-2-12-12m-566-98c13-14 26-25 28-25 3 0-5 11-18 25s-26 25-28 25c-3 0 5-11 18-25m495-50c-16-14-36-25-43-25s-27-7-45-16c-17-9-65-20-107-24-74-7-75-7-32-15 24-4 46-14 49-21 8-22 37-16 64 12 13 14 52 39 85 54 34 16 64 36 67 44 9 22-3 19-38-9m-210-16c-29-13-34-19-19-19 12 0 32 9 45 20 29 24 25 24-26-1"/></g><g fill="#fcb073"><path d="M1367 1532c-40-37-85-77-102-87-16-10-58-42-91-71-34-29-72-55-85-59s-37-17-53-28c-45-32-288-147-310-147-12 0-30-7-40-15-11-8-31-15-44-15s-57-11-98-25-91-25-112-25c-23 0-59-13-97-33-49-28-66-45-100-101-23-38-56-76-74-87s-31-23-28-26-15-30-39-60c-42-52-45-58-39-97 4-22 11-45 16-51 5-5 9-20 9-34 0-45 17-8 28 62 11 67 26 102 42 92 5-3 17 10 29 27 30 49 113 126 144 134 16 3 25 9 22 12-5 6 124 57 172 69 13 3 20 9 17 14s1 9 8 9c8 0 22 14 31 30 10 17 24 30 30 30 7 0 30 10 52 22s50 21 63 20c29-2 78 28 61 38-7 5 3 12 25 20 54 17 54 7 2-32-25-18-45-38-46-44 0-5-21-20-47-33-27-12-59-30-73-38-23-16-23-17-5-24 17-6 15-8-10-8-23-1-27-4-15-11 8-5 25-10 36-10 24 0 198-83 226-108 16-13 18-13 24 2 5 12 10 14 20 5 7-6 22-8 34-4 25 8 25-4 3-44-17-30-17-32 0-62 9-17 17-39 17-50s9-37 20-59 20-52 19-67c0-25-2-23-16 15-8 24-16 42-18 40-8-7 19-98 29-98 13 1 101 116 112 145 4 11 17 29 28 40 12 11 31 34 43 50 22 30 22 30 23 6 0-15-35-76-87-153-49-71-93-137-99-148-27-49-53-81-138-169-52-52-59-77-13-40 41 31 33 3-15-54-41-48-38-54 7-18 20 16 20 16 1-6-19-23-88-63-109-63-7 0-33-20-59-44-38-35-57-45-96-50-44-6-53-3-92 25-24 17-59 36-79 42-20 5-30 12-23 14 19 7 3 23-23 23-27 0-86 28-155 73-58 38-71 55-64 82 3 14-4 35-20 59-38 57-62 124-48 138 7 7 12 23 12 36 0 20-3 22-14 13-21-17-29-63-16-95 7-19 7-33 0-47-9-15-7-19 5-19 19 0 70-104 60-121-5-7-24 5-51 32-43 43-45 45-43 104 0 33-4 80-9 105-6 26-7 86-4 142l7 97 45 46c24 25 40 45 34 45-11 0-63-52-86-87-12-18-14-57-12-203 3-208 13-243 84-300 22-18 49-49 60-69C208 76 294 30 407 24c41-2 91-8 111-13s70-8 110-6c90 4 118 21 247 149 50 48 106 99 126 112 20 12 52 45 70 71s48 70 66 97c18 26 33 56 33 66 0 9 13 31 30 48 17 18 30 42 30 55 0 21 14 47 86 157 12 19 26 49 30 65 4 17 15 41 26 54 10 13 18 29 18 35s15 43 33 81c18 39 39 90 46 115s19 56 26 70 16 41 20 60 11 40 16 45c4 6 10 22 12 35 3 14 14 41 25 60 16 28 19 47 15 93-3 31-9 57-14 57s-9 6-9 13c0 24-39 51-81 54-38 4-44 0-112-65m-303-387c9-23-2-39-39-57-36-18-47-11-20 12 11 9 13 16 5 24-7 7-3 14 12 23 30 16 35 16 42-2m-84-25c-8-6-24-15-35-21-16-8-15-6 4 10 13 12 28 21 35 21 6 0 4-5-4-10m-320-30c-14-4-34-8-45-9-16-1-17 1-5 9 8 5 29 9 45 9 29-1 29-1 5-9m290-44c0-3-5-8-12-12s-8-3-4 4c7 12 16 16 16 8m-630-81c-43-44-58-51-47-21 5 13 72 64 87 65 2 1-16-19-40-44m660-204c0-6-4-13-10-16-5-3-10 1-10 9 0 9 5 16 10 16 6 0 10-4 10-9m281-63c-22-34-41-58-41-52s8 22 19 35c10 13 26 39 35 57 10 19 20 32 23 29 2-3-14-34-36-69m-214-304c-17-25-47-62-66-82-25-27-28-29-12-7 12 17 33 48 47 70 23 34 51 65 61 65 1 0-12-21-30-46M227 168c-3-8-6-5-6 6-1 11 2 17 5 13 3-3 4-12 1-19m39-81c17-9 34-14 37-11s15 0 27-6c13-7 20-8 16-2-3 6-2 13 4 17 5 3 10 2 10-4s8-8 18-4c14 5 13 1-5-17-20-21-25-22-61-12-21 6-54 26-73 44-20 18-28 28-20 22 9-7 30-19 47-27m121 17c-3-3-12-4-19-1-8 3-5 6 6 6 11 1 17-2 13-5m353-48c0-2-8-10-17-17-16-13-17-12-4 4s21 21 21 13"/><path d="M930 730c0-7 3-10 7-7 3 4 3 10 0 14-4 3-7 0-7-7M180 314c0-21 25-62 33-54 3 3-4 21-14 40-14 26-19 30-19 14m656-11c-6-14-5-15 5-6 7 7 10 15 7 18s-9-2-12-12m-566-98c13-14 26-25 28-25 3 0-5 11-18 25s-26 25-28 25c-3 0 5-11 18-25m495-50c-16-14-36-25-43-25s-27-7-45-16c-17-9-65-20-107-24-74-7-75-7-32-15 24-4 46-14 49-21 8-22 37-16 64 12 13 14 52 39 85 54 34 16 64 36 67 44 9 22-3 19-38-9m-210-16c-29-13-34-19-19-19 12 0 32 9 45 20 29 24 25 24-26-1"/></g><g fill="#ffc35e"><path d="M1367 1532c-40-37-85-77-102-87-16-10-58-42-91-71-34-29-72-55-85-59s-37-17-53-28c-45-32-288-147-310-147-12 0-32-9-46-20l-25-20h24c13 0 38 8 55 19 36 22 105 45 112 38 3-3-16-21-42-41-34-26-42-36-28-37 10 0-19-19-66-41l-85-40 31-16c17-9 30-21 28-27-4-12 154-91 163-81 3 3 11-2 18-11 11-15 15-14 46 7 19 13 28 17 22 10-21-23-15-32 17-25 25 6 30 4 30-13 0-11-7-22-15-26-20-7-19-32 1-40 8-3 12-2 9 4s-1 10 4 10c14 0 14-13 0-43-9-19-8-30 5-49 9-13 18-46 21-73 9-90 12-92 62-24 25 34 50 75 55 90 5 16 15 29 21 29 7 0 21 14 32 30 23 35 31 37 37 12 4-12-29-70-92-164-53-80-100-157-104-171-3-15-17-34-31-43-13-8-50-46-82-82-32-37-45-57-29-44 38 29 44 21 17-23-24-42-26-49-8-39 6 4-1-7-17-24-17-18-34-32-40-32s-28-17-51-38c-22-20-34-30-27-22 13 16 16 30 5 30-5 0-29-20-55-44-38-34-57-45-96-50-44-6-52-3-98 29-57 41-97 45-131 13-20-19-27-20-61-10-21 7-54 26-73 44-20 18-28 28-20 22 29-21 78-43 84-38 3 3 15 1 26-6 12-6 21-7 20-3-3 19 2 27 10 15 6-10 10-10 21 3 10 13 9 15-8 15-12 0-25 6-29 14-13 23-100 65-111 54-7-7-12-3-17 10-3 12-19 35-34 51-25 26-30 28-35 14-6-14-15-9-52 28-43 43-45 45-43 104 0 33-4 80-9 105-6 26-7 86-4 142l7 97 45 46c24 25 49 45 55 45 5-1-2-11-17-23s-39-38-53-57c-21-29-25-42-19-73 3-21 12-50 19-64 15-28 16-27 35 60 8 37 23 60 70 109 33 33 60 69 60 79 0 22 73 60 159 85 34 9 66 23 72 30 10 12 8 13-7 9-10-3-5 1 11 9 17 8 37 15 46 16 8 0 29 16 46 35s41 35 52 35c12 0 21 4 21 9 0 12-60 3-115-16-22-8-35-9-30-4 6 5 44 21 85 35s67 26 57 26-52-11-93-25-91-25-112-25c-23 0-59-13-97-33-49-28-66-45-101-102-23-37-50-72-60-78-39-21-98-72-124-108l-27-37 3-182c3-208 13-243 84-300 22-18 49-49 60-69C208 76 294 30 407 24c41-2 91-8 111-13s70-8 110-6c90 4 118 21 247 149 50 48 106 99 126 111 51 33 159 188 174 250l7 30-28-25c-31-27-16-5 29 43 15 16 28 39 28 51 1 18 2 19 6 2 3-10-5-31-16-47-12-16-17-29-12-29 15 0 41 42 41 66 0 19 15 45 86 154 12 19 26 49 30 65 4 17 15 41 26 54 10 13 18 29 18 35s15 43 33 81c18 39 39 90 46 115s19 56 26 70 16 41 20 60 11 40 16 45c4 6 10 22 12 35 3 14 14 41 25 60 16 28 19 47 15 93-3 31-9 57-14 57s-9 6-9 13c0 24-39 51-81 54-38 4-44 0-112-65m-299-392c8-13 8-20 1-20-5 0-8-4-4-9 3-6-10-17-29-26-18-9-44-27-57-41-36-38-56-32-53 17 2 49 7 54 70 79 61 24 57 24 72 0m-643-97c-11-3-50-32-87-65-42-36-68-54-68-44 0 8 11 23 25 33s45 33 68 50c23 18 51 32 62 32l20-1zm715-7c0-15-37-32-48-22-6 6 27 35 41 36 4 0 7-6 7-14m-383-23c-4-3-10-3-14 0-3 4 0 7 7 7s10-3 7-7m153-7c0-3-5-8-12-12s-8-3-4 4c7 12 16 16 16 8m180-83c0-13-74-83-87-83-23 0-14 15 18 29 17 7 35 24 41 37 10 22 28 33 28 17m-285-13c3-5 2-10-4-10-5 0-13 5-16 10-3 6-2 10 4 10 5 0 13-4 16-10m473-186c-26-47-58-90-58-79s73 126 77 121c2-2-6-21-19-42m-260 8c6-18-15-14-22 4-4 10-1 14 6 12 6-2 14-10 16-16m225-7c-3-9-8-14-10-11-3 3-2 9 2 15 9 16 15 13 8-4m-157-282c-70-99-86-120-116-148-23-22-29-25-24-11s4 17-5 11c-10-6-11-3-2 13 6 12 17 24 24 28 8 5 7 2-2-9-8-10-11-20-8-23 6-7 67 74 67 89 0 11 82 94 89 90 2-2-8-20-23-40M740 56c0-2-8-10-17-17-16-13-17-12-4 4s21 21 21 13"/><path d="M983 1113c4-3 10-3 14 0 3 4 0 7-7 7s-10-3-7-7m-234 0c-6-7-7-13-2-13s17 6 27 13c16 12 17 14 2 14-9 0-21-6-27-14M648 953c7-3 16-2 19 1 4 3-2 6-13 5-11 0-14-3-6-6M254 848c-4-7-3-8 4-4 12 7 16 16 8 16-3 0-8-5-12-12M94 519c-21-26-26-61-13-85 9-18 10-30 1-48-9-20-8-25 5-28 8-2 25-22 38-46 38-71 38-21-1 56-37 75-40 92-23 109 6 6 9 21 7 33-2 19-5 21-14 9m96-228c0-6 4-13 10-16s7 1 4 9c-7 18-14 21-14 7m564-147c-36-25-137-56-186-57-26 0-45-4-42-9 3-4 16-8 30-8s27-7 30-15c9-22 31-18 62 11 15 14 53 39 85 55 31 16 57 31 57 34 0 9-14 4-36-11m-204-9c-14-8-20-14-15-14 6 0 21 6 35 14s21 14 15 14c-5 0-21-6-35-14"/></g><g fill="#fea492"><path d="M1367 1532c-40-37-85-77-102-87-16-10-58-42-91-71-34-29-72-55-85-59s-37-17-53-28c-45-32-288-147-310-147-12 0-32-9-46-20l-25-20h26c14 0 34 7 45 15 26 20 40 19 23-2-12-14-12-16 1-11 8 3 14 12 14 20-1 15 92 56 102 45 3-3-17-22-46-43-30-22-47-40-41-44 6-3-26-23-71-44l-83-37 31-17c17-9 30-21 28-27-4-12 154-91 163-81 3 3 11-2 18-11 11-15 15-14 46 7 19 13 28 17 22 10-21-23-15-32 17-25 25 6 30 4 30-13 0-11-7-22-15-26-24-9-19-39 5-31 23 7 25-3 9-38-9-19-8-30 5-49 9-13 18-46 21-73 9-90 12-92 62-24 25 34 50 75 55 90 5 16 15 29 22 29 13 0 70 84 86 126 6 15 13 25 15 22 3-3-2-21-10-41s-15-47-15-60-10-39-23-58-57-83-98-144c-42-60-79-122-82-137-4-15-18-35-32-44-13-8-50-46-82-82-32-37-45-57-29-44 38 29 44 21 17-23-24-42-26-49-8-39 6 4-1-7-17-24-17-18-34-32-40-32s-28-17-51-38c-22-20-34-30-27-22 13 16 16 30 5 30-5 0-29-20-55-44-38-34-57-45-96-50-44-6-52-3-98 29-57 41-97 45-131 13-20-19-27-20-61-10-21 7-54 26-73 44-20 18-28 28-20 22 29-21 78-43 84-38 3 3 15 1 26-6 12-6 21-7 20-3-3 19 2 27 10 15 6-10 10-10 21 3 10 13 9 15-8 15-12 0-25 6-29 14-13 23-100 65-111 54-7-7-12-3-17 10-3 12-19 35-34 51-25 26-30 28-35 14-6-14-15-9-52 28-43 43-45 45-43 104 0 33-4 80-9 105-6 26-7 86-4 142l7 97 45 46c24 25 49 45 55 45 5-1-2-11-17-23s-39-38-53-57c-21-29-25-42-19-73 3-21 12-50 19-64 15-28 16-27 35 60 8 37 23 60 70 109 33 33 60 69 60 79 0 22 73 60 159 85 34 9 66 23 72 30 10 12 8 13-7 9-10-3-5 1 11 9 17 8 37 15 46 16 8 0 29 16 46 35s41 35 52 35c12 0 21 4 21 9 0 12-60 3-115-16-22-8-35-9-30-4 6 5 44 21 85 35s67 26 57 26-52-11-93-25-91-25-112-25c-23 0-59-13-97-33-49-28-66-45-101-102-23-37-50-72-60-78-39-21-98-72-124-108l-27-37 3-182c3-208 13-243 84-300 22-18 49-49 60-69C208 76 294 30 407 24c41-2 91-8 111-13s70-8 110-6c90 4 118 21 247 149 50 48 106 99 126 111 51 33 159 188 174 250l7 30-28-25c-31-27-16-5 29 43 15 16 28 39 28 51 1 18 2 19 6 2 3-10-5-31-16-47-12-16-17-29-12-29 15 0 41 42 41 66 0 19 15 45 86 154 12 19 26 49 30 65 4 17 15 41 26 54 10 13 18 29 18 35s15 43 33 81c18 39 39 90 46 115s19 56 26 70 16 41 20 60 11 40 16 45c4 6 10 22 12 35 3 14 14 41 25 60 16 28 19 47 15 93-3 31-9 57-14 57s-9 6-9 13c0 24-39 51-81 54-38 4-44 0-112-65m-298-386c15-17-1-56-23-56-7 0-31-16-53-35-23-19-47-35-54-35s-22-8-33-17c-17-16-17-14 3 12 14 19 21 40 19 60-3 27 2 32 52 57 64 32 73 33 89 14m-644-103c-11-3-50-32-87-65-42-36-68-54-68-44 0 8 11 23 25 33s45 33 68 50c23 18 51 32 62 32l20-1zm715-7c0-15-37-32-48-22-6 6 27 35 41 36 4 0 7-6 7-14m-383-23c-4-3-10-3-14 0-3 4 0 7 7 7s10-3 7-7m333-90c0-13-74-83-87-83-23 0-14 15 18 29 17 7 35 24 41 37 10 22 28 33 28 17m-285-13c3-5 2-10-4-10-5 0-13 5-16 10-3 6-2 10 4 10 5 0 13-4 16-10m505-132c-33-64-98-157-87-126 3 10 27 48 52 86s45 76 45 84c0 17 11 30 18 23 3-3-10-33-28-67m-292-46c6-18-15-14-22 4-4 10-1 14 6 12 6-2 14-10 16-16m225-7c-3-9-8-14-10-11-3 3-2 9 2 15 9 16 15 13 8-4m-157-282c-70-99-86-120-116-148-23-22-29-25-24-11s4 17-5 11c-10-6-11-3-2 13 6 12 17 24 24 28 8 5 7 2-2-9-8-10-11-20-8-23 6-7 67 74 67 89 0 11 82 94 89 90 2-2-8-20-23-40M740 56c0-2-8-10-17-17-16-13-17-12-4 4s21 21 21 13"/><path d="M983 1113c4-3 10-3 14 0 3 4 0 7-7 7s-10-3-7-7M648 953c7-3 16-2 19 1 4 3-2 6-13 5-11 0-14-3-6-6M254 848c-4-7-3-8 4-4 12 7 16 16 8 16-3 0-8-5-12-12M94 519c-21-26-26-61-13-85 9-18 10-30 1-48-9-20-8-25 5-28 8-2 25-22 38-46 38-71 38-21-1 56-37 75-40 92-23 109 6 6 9 21 7 33-2 19-5 21-14 9m96-228c0-6 4-13 10-16s7 1 4 9c-7 18-14 21-14 7m564-147c-36-25-137-56-186-57-26 0-45-4-42-9 3-4 16-8 30-8s27-7 30-15c9-22 31-18 62 11 15 14 53 39 85 55 31 16 57 31 57 34 0 9-14 4-36-11m-204-9c-14-8-20-14-15-14 6 0 21 6 35 14s21 14 15 14c-5 0-21-6-35-14"/></g><g fill="#fcb688"><path d="M1367 1532c-40-37-85-77-102-87-16-10-58-42-91-71-34-29-72-55-85-59s-37-17-53-28c-45-32-288-147-310-147-12 0-32-9-46-20l-25-20h26c14 0 34 7 45 15 26 20 40 19 23-2-12-14-12-16 1-11 8 3 14 12 14 20-1 15 92 56 102 45 3-3-17-22-46-43-30-22-47-40-41-44 6-3-26-23-71-44l-83-37 31-17c17-9 30-21 28-27-4-12 154-91 163-81 3 3 11-2 18-11 11-15 15-14 46 7 19 13 28 17 22 10-21-23-15-32 17-25 25 6 30 4 30-13 0-11-7-22-15-26-8-3-15-13-15-21 0-12 6-15 21-10 19 6 21 4 15-19-5-19-3-24 8-20 21 8 29-12 14-38-7-13-11-27-10-31s4-29 7-54c9-88 12-89 62-22 25 34 50 75 55 90 5 16 15 29 22 29 13 0 70 84 86 126 6 15 13 25 15 22 3-3-2-21-10-41s-15-47-15-60-10-39-23-58-57-83-98-144c-42-60-79-122-82-137-4-15-18-35-32-44-13-8-50-46-82-82-32-37-45-57-29-44 38 29 44 21 17-23-26-44-26-52-3-34 13 10 12 8-3-11-28-34-58-59-71-60-13 0-53-42-68-71-6-13-27-29-46-36-32-12-33-12-15 2 48 37 77 69 65 73-6 2-29-14-51-37-22-22-45-41-52-41s-4-5 5-10c11-7 26-7 43 0 41 15 133 90 202 163 34 37 80 77 101 91 54 34 162 187 177 251l7 30-28-25c-31-27-16-5 29 43 15 16 28 39 28 51 1 18 2 19 6 2 3-10-5-31-16-47-12-16-17-29-12-29 15 0 41 42 41 66 0 19 15 45 86 154 12 19 26 49 30 65 4 17 15 41 26 54 10 13 18 29 18 35s15 43 33 81c18 39 39 90 46 115s19 56 26 70 16 41 20 60 11 40 16 45c4 6 10 22 12 35 3 14 14 41 25 60 16 28 19 47 15 93-3 31-9 57-14 57s-9 6-9 13c0 24-39 51-81 54-38 4-44 0-112-65m-298-386c15-17-1-56-23-56-7 0-31-16-53-35-23-19-47-35-54-35s-22-8-33-17c-17-16-17-14 3 12 14 19 21 40 19 60-3 27 2 32 52 57 64 32 73 33 89 14m71-110c0-15-37-32-48-22-6 6 27 35 41 36 4 0 7-6 7-14m-383-23c-4-3-10-3-14 0-3 4 0 7 7 7s10-3 7-7m333-90c0-13-74-83-87-83-23 0-14 15 18 29 17 7 35 24 41 37 10 22 28 33 28 17m-285-13c3-5 2-10-4-10-5 0-13 5-16 10-3 6-2 10 4 10 5 0 13-4 16-10m505-132c-33-64-98-157-87-126 3 10 27 48 52 86s45 76 45 84c0 17 11 30 18 23 3-3-10-33-28-67m-67-53c-3-9-8-14-10-11-3 3-2 9 2 15 9 16 15 13 8-4m-157-282c-70-99-86-120-116-148-23-22-29-25-24-11s4 17-5 11c-10-6-11-3-2 13 6 12 17 24 24 28 8 5 7 2-2-9-8-10-11-20-8-23 6-7 67 74 67 89 0 11 82 94 89 90 2-2-8-20-23-40"/><path d="M983 1113c4-3 10-3 14 0 3 4 0 7-7 7s-10-3-7-7m-438-28c-38-13-88-24-110-25-26 0-61-12-100-33-49-28-66-45-101-102-23-37-50-72-60-78-39-21-98-72-124-108l-27-37 3-182c3-208 13-243 84-300 22-18 49-49 60-69 10-21 27-44 37-52 13-10 12-7-4 14-21 27-22 57-2 57 18 0 8 29-20 59-25 27-29 29-34 12-2-10 0-27 6-37 10-18 0-12-59 42-29 26-54 94-52 146 0 29-1 111-4 181l-5 129 40 46c44 52 95 87 79 55-34-67-52-118-51-146l1-32 9 37c6 26 28 58 69 99 33 34 60 70 60 80 0 22 73 60 159 85 34 9 66 23 72 30 10 12 8 13-7 9-10-3-5 1 11 9 17 8 37 15 46 16 8 0 29 16 46 35s41 35 52 35c12 0 21 4 21 9 0 12-60 3-115-16-22-8-35-9-30-4 6 5 44 21 85 35s66 25 55 25-51-10-90-24m-120-42c-11-3-55-42-97-87-76-79-77-80-71-46 9 55 21 69 79 97 30 14 57 29 60 34s15 8 27 8c20-1 21-2 2-6m0-53c-3-5-12-10-18-10-7 0-6 4 3 10 19 12 23 12 15 0M196 822c-16-15-25-20-21-12 13 25 38 50 44 45 3-3-8-18-23-33m452 131c7-3 16-2 19 1 4 3-2 6-13 5-11 0-14-3-6-6"/><path d="M254 848c-4-7-3-8 4-4 12 7 16 16 8 16-3 0-8-5-12-12m716-127c0-6 4-13 10-16s7 1 4 9c-7 18-14 21-14 7M91 613c-1-6-4-20-7-30-5-17-5-17 6 0 6 10 9 23 6 30-3 9-5 9-5 0m0-97c-10-11-12-31-8-66 7-60 61-189 70-167 3 9-10 47-29 85-37 75-40 92-23 109 6 6 9 21 7 33-3 21-4 22-17 6m99-225c0-6 4-13 10-16s7 1 4 9c-7 18-14 21-14 7m50-121c0-11 49-46 78-54 40-13 23 10-28 36-27 14-50 22-50 18m480-41c-30-15-74-31-97-35-44-6-44-7-15-53 1-3 15 7 30 21s55 40 90 57c34 17 62 33 62 36 0 8-12 4-70-26m-170 6c-14-8-20-14-15-14 6 0 21 6 35 14s21 14 15 14c-5 0-21-6-35-14M373 93c4-3 10-3 14 0 3 4 0 7-7 7s-10-3-7-7m-143-7c0-2 8-10 18-17 15-13 16-12 3 4s-21 21-21 13m298-3c7-3 16-2 19 1 4 3-2 6-13 5-11 0-14-3-6-6M375 50c-3-5-18-10-32-10-57 0-11-12 61-15 42-3 88-7 103-10 23-4-37 18-109 41-9 2-19 0-23-6m-82-7c4-3 10-3 14 0 3 4 0 7-7 7s-10-3-7-7M553 3c9-2 23-2 30 0 6 3-1 5-18 5-16 0-22-2-12-5"/></g><g fill="#ffc879"><path d="M1367 1532c-40-37-85-77-102-87-16-10-58-42-91-71-34-29-72-55-85-59s-37-17-53-28c-45-32-288-147-310-147-21-1-56-22-56-34 0-3 16 1 36 9 47 19 60 19 43-2-12-14-12-16 1-11 8 3 14 12 14 20-1 15 92 56 102 45 3-3-18-23-46-43-40-28-49-39-36-43 16-6-25-32-109-66-38-16-39-17-18-28 19-8 27-6 47 16 15 16 36 27 51 27 37 0 31-14-14-35-34-15-59-41-49-50 7-6 148-75 153-75 4 0 3 6 0 13-3 6 2 2 11-11 19-25 34-29 34-7 0 8 6 15 13 15 6 0 23 13 37 30 19 23 29 27 40 20 12-9 9-15-20-40-19-16-30-30-24-30s17 7 24 14c8 10 18 12 33 7 12-5 32-5 45 0 27 10 29 19 2 14-11-2-20-1-20 3 1 12 72 53 84 48 7-3 7-5-1-5-7-1-13-7-13-15 0-14-107-116-122-116-4 0-8-7-8-15s6-12 13-10c6 3 23-11 37-30 27-37 45-44 54-20 6 15 26 21 26 7 0-4-18-31-40-61-39-52-46-73-34-105 5-13 14-7 40 26 19 24 41 58 50 77s37 55 62 80 51 61 59 80c8 18 16 31 19 29 2-3-3-21-11-41s-15-47-15-61c0-13-24-59-53-103-51-75-81-147-51-123 10 9 11 6 7-12-5-20 0-18 35 16 40 38 79 124 68 151-2 7 2 21 10 32 9 10 13 12 9 6-3-7 0-13 7-13 15 1 68 80 68 103 0 9 5 19 11 23 26 16-42-121-92-184-10-14-19-35-19-49 0-13-16-42-38-66-21-23-64-78-97-122-59-80-163-187-174-181-3 2-15-8-25-22-17-22-17-25-3-19 15 5 16 3 7-13-11-21-62-60-79-60-6 0-27-22-46-49-22-31-48-53-68-60l-32-11 26 20c15 11 35 32 44 47 18 26 17 26-23-6-23-18-42-37-42-42s-8-9-17-9c-17-1-17-1-1-10 11-7 26-7 43 0 41 15 133 90 202 163 34 37 80 77 102 91 21 14 54 47 72 73s48 70 66 97c18 26 33 56 33 66 0 9 13 31 30 48 17 18 30 42 30 55 0 21 14 47 86 157 12 19 26 49 30 65 4 17 15 41 26 54 10 13 18 29 18 35s15 43 33 81c18 39 39 90 46 115s19 56 26 70 16 41 20 60 11 40 16 45c4 6 10 22 12 35 3 14 14 41 25 60 16 28 19 47 15 93-3 31-9 57-14 57s-9 6-9 13c0 24-39 51-81 54-38 4-44 0-112-65m-298-385c13-16-7-79-24-73-14 5-56-18-79-43-10-11-23-18-28-15s-19-2-31-13c-22-18-22-18-6 2 22 29 23 75 1 75-32 0 104 75 144 79 6 1 17-5 23-12m76-120c8-17 7-26-5-38-15-14-19-12-49 18l-33 33h26c14 0 26 4 26 10 0 16 24 1 35-23M810 910c14-11 22-20 18-20-14 0-58 23-58 32 0 13 13 9 40-12m27 13c-4-3-10-3-14 0-3 4 0 7 7 7s10-3 7-7m-219 180c6-2 18-2 25 0 6 3 1 5-13 5s-19-2-12-5m-93-23c-27-11-68-20-90-20-26 0-60-11-100-33-49-28-66-45-101-102-23-37-50-72-60-78-39-21-98-72-124-108l-27-37 3-182c3-208 13-243 84-300 22-18 49-49 60-69 10-21 27-44 37-52 13-10 12-7-4 14-21 27-22 57-2 57 16 0 10 18-17 50-20 23-29 28-35 19-4-7-3-22 3-33 11-21 6-18-58 40-29 26-54 94-52 146 0 29-1 111-4 181l-5 129 40 46c43 51 147 120 147 98 0-17-33-46-53-46-19 0-67-101-66-139 1-24 2-23 9 7 9 40 51 102 64 95 5-3 6-2 3 4-3 5 7 19 23 31 20 15 34 39 45 79 9 32 22 69 29 83 16 35 120 89 171 90 33 0 140 32 154 46 10 10-28 1-74-16"/><path d="M540 1053c-48-18-98-44-110-58-22-27-32-16-11 12 12 14 19 28 17 30-12 12-47-14-106-79-36-40-56-68-45-64s52 17 90 28c68 19 113 42 64 32-25-4 42 31 74 40 9 2 17 11 17 20 0 8 12 22 28 30 26 15 14 21-18 9M92 508c-7-7-12-21-12-32 1-18 3-17 16 7 17 31 15 44-4 25m977-21c-14-18-29-39-34-47-15-25 23 9 47 42 28 40 18 44-13 5M90 415c0-5 5-17 10-25s10-10 10-5c0 6-5 17-10 25s-10 11-10 5m820-107c-30-35-42-52-27-39 25 23 27 23 28 5 0-16 2-15 10 5 5 13 19 36 30 53 39 54 13 39-41-24m-790 35c0-6 8-17 18-24 16-13 16-13 2 6-8 11-16 22-17 24q-3 3-3-6m130-184c0-12 59-41 73-36 7 2-7 13-30 25-24 11-43 16-43 11m513-16c4-3 10-3 14 0 3 4 0 7-7 7s-10-3-7-7m-98-38c-16-8-40-14-53-15-20 0-22-4-16-22 10-34 12-34 47-1 17 17 41 35 52 41 28 16 6 13-30-3M230 86c0-2 8-10 18-17 15-13 16-12 3 4s-21 21-21 13m145-36c-3-5-18-10-32-10-57 0-11-12 61-15 42-3 88-7 103-10 23-4-37 18-109 41-9 2-19 0-23-6m-82-7c4-3 10-3 14 0 3 4 0 7-7 7s-10-3-7-7M553 3c9-2 23-2 30 0 6 3-1 5-18 5-16 0-22-2-12-5"/></g><g fill="#fdcd8f"><path d="M1367 1532c-40-37-85-77-102-87-16-10-58-42-91-71-34-29-72-55-85-59s-37-17-53-28c-45-32-288-147-310-147-21-1-56-22-56-33 0-4 24 3 53 15 28 11 83 32 122 45 38 14 84 37 102 50 19 14 35 24 38 22 2-3-46-38-106-79-75-50-106-76-95-80 16-5-26-31-109-65-38-16-39-17-18-28 19-8 27-6 47 16 15 16 36 27 51 27 37 0 31-14-14-35-34-15-59-41-49-50 7-6 148-75 153-75 4 0 3 6-1 13-4 6 5 1 19-12 22-20 27-22 27-8 0 9 6 17 13 17 6 0 23 13 37 30 19 23 29 27 40 20 12-9 9-15-20-40-19-16-30-30-24-30s17 7 24 14c8 10 18 12 33 7 25-9 47-4 47 10 0 6-4 7-10 4-5-3-10-3-10 2 1 19 100 67 100 49 0-10-107-116-117-116-17 0-8-56 14-84 24-29 38-33 47-11 6 15 26 21 26 7 0-4-18-31-40-61-39-52-46-73-34-105 5-13 14-7 40 26 18 24 43 62 56 86 12 24 29 49 38 55 24 18 67 79 75 107 10 34 52 83 58 67 2-6 7 9 11 34 6 39 13 51 45 73 21 15 43 38 50 53 6 14 14 23 18 20 7-8-30-68-58-93-30-27-55-77-40-82 8-3 8-9 0-24-6-11-12-30-13-42-2-11-17-36-34-55-18-18-32-37-32-42 0-14-63-113-77-122s-47-67-38-67c3 0 0-10-6-23-11-20-11-21 4-9 13 11 15 10 10-10s0-18 35 16c40 39 79 124 68 152-3 7 5 25 16 41 35 46 41 50 24 16-23-45-14-41 19 8 15 23 22 38 16 35-19-12-12 8 14 39 19 24 24 26 25 12 0-22-20-63-76-150-24-37-44-77-44-88 0-10-17-38-38-62-21-23-64-78-97-122-59-80-163-187-174-181-3 2-15-8-25-22-17-22-17-25-3-19 15 5 16 3 7-13-11-21-62-60-79-60-6 0-27-22-46-49-22-31-48-53-68-60l-32-11 26 20c15 11 35 32 44 47 18 26 17 26-23-6-23-18-42-37-42-42s-8-9-17-9c-17-1-17-1-1-10 11-7 26-7 43 0 41 15 133 90 202 163 34 37 80 77 102 91 21 14 54 47 72 73s48 70 66 97c18 26 33 56 33 66 0 9 13 31 30 48 17 18 30 42 30 55 0 21 14 47 86 157 12 19 26 49 30 65 4 17 15 41 26 54 10 13 18 29 18 35s15 43 33 81c18 39 39 90 46 115s19 56 26 70 16 41 20 60 11 40 16 45c4 6 10 22 12 35 3 14 14 41 25 60 16 28 19 47 15 93-3 31-9 57-14 57s-9 6-9 13c0 24-39 51-81 54-38 4-44 0-112-65m-327-296c0-2-7-7-16-10-8-3-12-2-9 4 6 10 25 14 25 6m40-100c0-22-25-66-35-62-5 2-19-1-30-7-26-13-118-88-128-104-4-7-12-13-18-13-5 0 3 19 18 43 35 52 41 87 16 87-24 0 34 38 102 66 50 20 75 17 75-10m180-25c-25-20-58-49-75-66-26-25-28-30-12-33 10-2 26 2 35 10 12 9 11 6-3-10-13-16-26-21-42-18-13 4-25 1-30-8-6-11-15-6-41 20l-34 34h26c14 0 26 5 26 10 0 6 11 10 25 10s25-5 25-11c0-8 5-8 15 1 8 7 15 19 15 26 0 8 4 14 9 14 4 0 28 15 52 34 59 45 66 34 9-13m23-126c4-8 2-17-3-20-6-4-10 3-10 14 0 25 6 27 13 6m-473-75c14-11 22-20 18-20-14 0-58 23-58 32 0 13 13 9 40-12m27 13c-4-3-10-3-14 0-3 4 0 7 7 7s10-3 7-7m303-343c0-5-5-10-11-10-5 0-7 5-4 10 3 6 8 10 11 10 2 0 4-4 4-10m-522 523c6-2 18-2 25 0 6 3 1 5-13 5s-19-2-12-5m-93-23c-27-11-68-20-90-20-26 0-60-11-100-33-49-28-66-45-101-102-23-37-50-72-60-78-39-21-98-72-124-108l-27-37 3-182c3-208 13-243 84-300 22-18 49-49 60-69 10-21 27-44 37-52 13-10 12-7-4 14-21 27-22 57-2 57 16 0 10 18-17 50-20 23-29 28-35 19-4-7-3-22 3-33 11-21 6-18-58 40-29 26-54 94-52 146 0 29-1 111-4 181l-5 129 40 46c43 51 147 120 147 98 0-17-33-46-53-46-19 0-67-101-66-139 1-24 2-23 9 7 9 40 51 102 64 95 5-3 6-2 3 4-3 5 7 19 23 31 20 15 34 39 45 79 9 32 22 69 29 83 16 35 120 89 171 90 33 0 140 32 154 46 10 10-28 1-74-16"/><path d="M540 1053c-48-18-98-44-110-58-22-27-32-16-11 12 12 14 19 28 17 30-12 12-47-14-106-79-36-40-56-68-45-64s52 17 90 28c68 19 113 42 64 32-25-4 42 31 74 40 9 2 17 11 17 20 0 8 12 22 28 30 26 15 14 21-18 9m710-224c0-18 2-19 15-9 8 7 15 16 15 21s-7 9-15 9c-9 0-15-9-15-21m-290-29c0-7 3-10 7-7 3 4 3 10 0 14-4 3-7 0-7-7M92 508c-7-7-12-21-12-32 1-18 3-17 16 7 17 31 15 44-4 25m977-21c-14-18-29-39-34-47-15-25 23 9 47 42 28 40 18 44-13 5M90 415c0-5 5-17 10-25s10-10 10-5c0 6-5 17-10 25s-10 11-10 5m820-107c-30-35-42-52-27-39 25 23 27 23 28 5 0-16 2-15 10 5 5 13 19 36 30 53 39 54 13 39-41-24m-790 35c0-6 8-17 18-24 16-13 16-13 2 6-8 11-16 22-17 24q-3 3-3-6m130-184c0-12 59-41 73-36 7 2-7 13-30 25-24 11-43 16-43 11m513-16c4-3 10-3 14 0 3 4 0 7-7 7s-10-3-7-7m-98-38c-16-8-40-14-53-15-20 0-22-4-16-22 10-34 12-34 47-1 17 17 41 35 52 41 28 16 6 13-30-3M230 86c0-2 8-10 18-17 15-13 16-12 3 4s-21 21-21 13m145-36c-3-5-18-10-32-10-57 0-11-12 61-15 42-3 88-7 103-10 23-4-37 18-109 41-9 2-19 0-23-6m-82-7c4-3 10-3 14 0 3 4 0 7-7 7s-10-3-7-7M553 3c9-2 23-2 30 0 6 3-1 5-18 5-16 0-22-2-12-5"/></g><g fill="#fcddaa"><path d="M1367 1532c-40-37-85-77-102-87-16-10-58-42-91-71-34-29-72-55-85-59s-37-17-53-28c-45-32-288-147-310-147-12 0-30-8-41-16-19-16-19-16 5-9 43 12 204 75 220 85 37 24 92 51 96 47 3-2-45-37-106-77-60-40-110-75-110-78 0-2 11-2 25 0 32 7 24-6-15-22-32-13-38-25-17-33 15-5-28-55-58-67-18-7-15-10 20-25 22-10 49-22 60-28 18-9 18-8 7 6-11 13-7 20 32 46 50 34 67 55 39 44-15-5-14-2 5 19 12 13 22 27 22 30s-10 9-22 12c-22 6-21 8 12 26 19 10 46 24 60 30s46 22 73 36c70 36 72 34 51-46-2-10 9-23 31-34 30-17 39-17 59-6 51 27 98 73 93 91-3 11 2 19 13 22 16 4 29-15 30-44 0-3-29-29-65-59s-65-58-65-63c0-6 8-3 18 6 14 12 21 14 30 5 8-8-5-24-51-62-87-72-139-126-161-167-19-36-19-36 1-56 19-19 20-19 43-1 13 10 29 17 36 14s15 2 18 10c8 20 26 18 26-3 0-13 12-6 41 25 31 33 40 49 35 66-4 16 1 29 14 41 11 10 20 26 20 36s5 21 11 25c6 3 9 16 7 29-4 16-1 21 11 19 10-2 28 14 47 44 17 26 38 46 45 45 17-3 52 54 37 59-6 2 1 15 16 28 14 14 26 30 26 37 0 6 4 14 10 18 14 9-17-88-33-100-7-5-11-17-10-25 2-9-15-45-37-82s-40-73-40-80-6-25-14-39c-7-14-16-38-20-53-4-16-21-46-38-67-17-22-29-41-26-44s27 24 53 60c27 36 49 65 50 65 2 0-1-17-6-38-8-35-47-109-92-172-9-13-17-29-17-34s14 13 32 40c17 27 41 65 54 84 12 19 26 49 30 65 4 17 15 41 26 54 10 13 18 29 18 35s15 43 33 81c18 39 39 90 46 115s19 56 26 70 16 41 20 60 11 40 16 45c4 6 10 22 12 35 3 14 14 41 25 60 16 28 19 47 15 93-3 31-9 57-14 57s-9 6-9 13c0 24-39 51-81 54-38 4-44 0-112-65m-192-223c-4-5-15-9-26-9-26 0-17 15 10 17 12 1 19-2 16-8m-56-3c-2-2-15-9-29-16-23-12-24-12-11 3 7 10 20 17 29 17 8 0 13-2 11-4m-75-41c-10-8-23-15-28-15-6 0-1 7 10 15 10 8 23 15 28 15 6 0 1-7-10-15m21-26c-4-5-12-9-19-9s-25-9-39-20c-31-24-44-26-26-3 31 36 104 65 84 32m-5-33c0-6-75-56-85-56-4 0 10 13 31 29q54 40.5 54 27m-136-51c-31-29-43-33-23-7 17 20 31 32 42 32 4 0-4-11-19-25m543 8c-4-3-7 0-7 7s3 10 7 7c3-4 3-10 0-14m-854-60c4-3 10-3 14 0 3 4 0 7-7 7s-10-3-7-7m-103-28c-36-13-58-24-50-24 8-1 44 10 80 24 36 13 58 24 50 24s-44-11-80-24m-175-48c-49-28-67-45-100-100-24-39-56-76-80-92-54-36-92-73-116-112-18-28-19-39-10-90l10-58-4 60c-5 64 3 84 55 137 33 33 117 88 136 88 16 0 37 43 24 48-10 4 15 55 37 74 27 24 95 60 128 69 27 6 28 7 5 8-14 0-52-14-85-32M231 887c-10-9-11-8-5 6 3 10 9 15 12 12s0-11-7-18"/><path d="m919 981-87-79 25-18 25-19 46 45c25 25 45 48 44 53-1 4 2 7 7 7s11-15 15-32c4-18 10-28 14-23 11 15 70 55 82 55 19 0 10 20-15 32-14 6-25 17-25 24 0 11-29 34-42 34-2 0-42-36-89-79m-386 62c4-3 10-3 14 0 3 4 0 7-7 7s-10-3-7-7m-188-75c-39-39-61-67-50-61s37 13 59 16c21 3 43 13 50 22 6 8 33 24 61 34 27 10 51 23 53 29 5 15-58-1-91-23-38-24-43-14-12 24 52 61 0 31-70-41m319 37c-10-8-14-15-8-15s17 7 24 15c16 19 9 19-16 0m36-60c0-2 18-14 41-26 23-11 38-16 35-10-4 5-20 17-38 25-34 17-38 19-38 11M136 756c-30-52-34-69-7-35 25 32 44 70 38 75-3 3-16-15-31-40m969-17c-9-14-2-20 14-10q12 9 3 15c-6 3-14 1-17-5m81-77c-16-31-35-69-42-84-8-14-14-34-14-44 0-15 6-13 31 13 36 36 71 125 61 153-6 16-12 9-36-38m4-26c0-3-5-8-12-12s-8-3-4 4c7 12 16 16 16 8M100 670c0-7 3-10 7-7 3 4 3 10 0 14-4 3-7 0-7-7m931-44c-13-14-20-30-16-36 4-7 16 1 31 21 13 18 24 34 24 36 0 10-20 0-39-21"/><path d="M1220 605c0-8-19-37-42-64-24-27-61-75-83-107-22-33-73-91-112-130-40-39-73-75-73-79 0-20-56-78-86-91-18-8-46-33-63-58-19-27-43-48-63-55l-33-11 26 22c46 41 58 65 17 34-21-16-38-32-38-37s-8-9-17-9c-17-1-17-1-1-10 11-7 26-7 43 0 41 15 133 90 202 163 34 37 80 77 102 91 21 14 54 47 72 73s48 70 66 97c18 26 33 56 33 66 0 9 14 31 30 48 26 27 41 72 25 72-3 0-5-7-5-15m-180-284c-16-31-32-36-18-7 6 14 15 26 20 26s4-9-2-19M27 455c3-140 19-184 83-235 22-18 49-49 60-69 10-21 27-44 37-52 13-10 12-7-4 14-21 27-22 57-2 57 16 0 10 18-17 50-20 23-29 28-35 19-4-7-3-22 3-33 11-21 6-18-58 40-30 27-56 97-50 138 3 23-1 75-8 116l-13 75zm65 53c-14-14-16-42-3-34 7 5 23 46 17 46-1 0-7-5-14-12"/><path d="m910 307-25-32 27 20c15 11 29 26 32 33 10 22-9 11-34-21M623 89c-24-7-30-13-26-29 7-27 15-25 46 10 29 32 28 33-20 19m-393-3c0-2 8-10 18-17 15-13 16-12 3 4s-21 21-21 13m145-36c-3-5-18-10-32-10-57 0-11-12 61-15 42-3 88-7 103-10 23-4-37 18-109 41-9 2-19 0-23-6m-82-7c4-3 10-3 14 0 3 4 0 7-7 7s-10-3-7-7M553 3c9-2 23-2 30 0 6 3-1 5-18 5-16 0-22-2-12-5"/></g></svg>